<svg width="512" height="512" version="1.1" xmlns="http://www.w3.org/2000/svg" desc="Created with imagetracer.js version 1.2.6" ><path fill="rgb(0,0,0)" stroke="rgb(0,0,0)" stroke-width="1" opacity="0" d="M 0 0 L 512 0 L 512 512 L 0 512 L 0 0 Z M 267 24 L 235 31 L 231 36 L 222 80 L 188 88 L 183 88 L 151 67 L 145 67 L 130 71 L 127 75 L 127 81 L 156 149 L 161 152 L 225 139 L 232 177 L 234 182 L 238 184 Q 259 182 276 176 L 278 172 L 286 126 L 354 112 L 367 107 Q 376 101 378 89 Q 379 80 376 76 L 373 73 L 327 58 L 320 58 L 315 60 L 283 66 L 276 29 Q 274 23 267 24 Z M 319 143 L 314 145 Q 312 148 313 155 L 318 158 Q 347 164 370 176 L 377 176 Q 382 174 380 166 L 377 162 L 356 153 L 334 146 L 319 143 Z M 137 160 Q 109 172 87 188 L 83 193 L 84 200 L 88 202 L 94 202 Q 115 185 143 174 L 146 170 L 145 164 Q 143 159 137 160 Z M 404 179 L 402 180 Q 397 182 398 190 L 403 194 L 424 208 L 447 228 L 454 227 L 457 222 L 456 217 Q 440 200 421 187 L 408 179 L 404 179 Z M 246 201 L 245 202 L 223 203 L 206 206 L 170 217 Q 130 233 101 259 Q 63 292 41 341 Q 32 360 27 384 L 24 407 L 23 408 L 23 419 L 22 420 L 23 459 L 24 460 L 26 479 L 28 484 L 32 486 L 97 486 L 99 485 L 101 482 L 101 477 L 94 465 Q 93 456 96 452 L 112 423 L 116 409 Q 116 394 109 387 Q 104 380 95 378 L 74 378 L 43 386 Q 57 324 95 286 Q 134 241 200 223 L 209 224 L 227 230 L 250 243 Q 261 252 266 268 Q 268 280 263 287 Q 257 294 248 298 L 218 308 L 198 319 L 186 333 L 182 347 Q 182 357 186 365 L 203 392 L 210 410 L 210 417 L 206 425 L 198 428 L 176 424 L 159 424 L 148 430 Q 142 435 139 444 Q 137 460 143 468 Q 150 476 161 481 L 181 486 L 479 486 L 483 481 L 485 462 L 486 461 L 486 451 L 487 450 L 487 419 L 486 418 L 485 400 L 479 371 L 473 353 Q 457 312 431 282 Q 398 243 350 221 Q 327 210 299 205 L 279 203 L 278 202 L 246 201 Z M 60 210 L 58 211 L 24 247 L 17 257 L 17 263 L 23 267 L 29 266 L 51 239 L 65 226 L 69 221 Q 70 214 68 212 Q 66 209 60 210 Z M 472 241 L 468 246 L 469 253 L 483 272 Q 486 275 494 274 L 497 270 L 496 263 L 481 242 Q 478 240 472 241 Z " /><path fill="rgb(0,0,0)" stroke="rgb(0,0,0)" stroke-width="1" opacity="0" d="M 259.5 41 Q 264.8 39.3 263 44.5 L 269 69.5 L 238 76 L 245 44 L 259.5 41 Z " /><path fill="rgb(0,0,0)" stroke="rgb(0,0,0)" stroke-width="1" opacity="0" d="M 322.5 73 L 363 86 Q 362.1 91.9 357.5 95 L 349.5 98 L 289 110 L 290 106.5 L 285.5 100 L 281.5 99 L 275 103.5 L 264 164 L 246 167 L 235 114.5 L 231.5 111 L 226.5 110 L 221 113.5 L 220 119.5 L 221 123.5 L 219.5 125 L 191.5 130 L 167.5 136 L 145 83 L 149.5 84 L 177.5 103 L 185.5 104 L 190.5 102 L 235.5 93 L 322.5 73 Z " /><path fill="rgb(0,0,0)" stroke="rgb(0,0,0)" stroke-width="1" opacity="0" d="M 394.5 269 L 396.5 269 L 411 282.5 Q 429.9 302.1 444 326.5 L 459 358.5 L 467 385.5 L 467 393.5 Q 464 409.5 454.5 419 L 449.5 420 L 429.5 405 Q 423.8 401.7 413.5 403 L 395.5 412 L 386.5 413 Q 383.8 411.8 385 406.5 L 391 387.5 L 394 370.5 L 391 362.5 L 388.5 360 L 384.5 358 L 362.5 358 Q 361.2 355.8 356.5 357 Q 346.8 354.7 341 348.5 Q 336.5 343 338 331.5 L 345 313.5 L 364.5 291 Q 378 278.5 394.5 269 Z " /><path fill="rgb(176,212,240)" stroke="rgb(176,212,240)" stroke-width="1" opacity="0.996078431372549" d="M 243.5 216 L 264.5 216 L 265.5 217 L 285.5 218 L 320.5 226 Q 356.6 237.4 383 258.5 Q 383.8 260.8 381.5 260 Q 359.4 273.4 343 292.5 L 328 314.5 L 324 327.5 L 323 341.5 Q 325.2 354.8 333.5 362 L 348.5 370 L 357.5 372 L 377.5 373 L 379 372.5 L 378 380.5 L 372 397.5 L 371 415.5 L 378.5 425 L 386.5 428 L 392.5 428 L 402.5 425 L 416.5 417 L 420.5 417 Q 428.9 421.1 434.5 428 L 445.5 434 L 456.5 434 Q 463.9 431.9 468 426.5 L 471.5 421 Q 474.6 427.4 473 438.5 L 472 439.5 L 471 464.5 L 468 480.5 L 471.5 485 L 474 485.5 L 201.5 486 L 201.5 485 L 205 482.5 L 206 478.5 L 202.5 473 L 200.5 472 L 187.5 472 L 170.5 469 Q 160.3 466.3 155 458.5 Q 152.3 455.2 153 448.5 L 159.5 440 L 164.5 438 L 165.5 439 L 175.5 439 L 193.5 443 L 200.5 443 Q 214 440.5 220 430.5 L 224 420.5 L 224 406.5 L 216 385.5 Q 205.4 372.6 198 356.5 Q 195.8 351.8 197 343.5 Q 200.3 334.8 207.5 330 L 218.5 324 L 257.5 310 Q 268.1 304.6 275 295.5 Q 281.5 286.5 281 270.5 Q 278.5 269 280 263.5 L 275 250.5 Q 268.5 239.5 258.5 232 Q 247.5 223 233 217.5 L 242.5 217 L 243.5 216 Z " /><path fill="rgb(176,212,240)" stroke="rgb(176,212,240)" stroke-width="1" opacity="0.996078431372549" d="M 76.5 392 L 91.5 392 L 99 397.5 Q 102.3 401.2 101 409.5 Q 93.7 428.7 83 444.5 L 80 453.5 L 79 463.5 L 81 471.5 L 88 484 L 91 485.5 L 36.5 486 L 36.5 485 L 41 481.5 L 41 475.5 L 38 461.5 L 38 452.5 L 37 451.5 L 37 414.5 L 38 413.5 Q 37.3 405.5 39 401 L 47.5 400 L 58.5 396 L 76.5 392 Z " /><path fill="rgb(88,154,209)" stroke="rgb(88,154,209)" stroke-width="1" opacity="0.4588235294117647" d="M 266.5 24 Q 274.4 23.1 276 28.5 L 275.5 32 Q 275.7 27.3 272.5 26 L 266.5 25 L 266.5 24 Z " /><path fill="rgb(88,154,209)" stroke="rgb(88,154,209)" stroke-width="1" opacity="0.4588235294117647" d="M 261.5 25 L 265 25.5 L 261.5 26 L 261.5 25 Z " /><path fill="rgb(88,154,209)" stroke="rgb(88,154,209)" stroke-width="1" opacity="0.4588235294117647" d="M 256.5 26 L 260 26.5 L 256.5 27 L 256.5 26 Z " /><path fill="rgb(88,154,209)" stroke="rgb(88,154,209)" stroke-width="1" opacity="0.4588235294117647" d="M 252.5 27 L 255 27.5 L 252.5 28 L 252.5 27 Z " /><path fill="rgb(88,154,209)" stroke="rgb(88,154,209)" stroke-width="1" opacity="0.4588235294117647" d="M 247.5 28 L 251 28.5 L 247.5 29 L 247.5 28 Z " /><path fill="rgb(88,154,209)" stroke="rgb(88,154,209)" stroke-width="1" opacity="0.4588235294117647" d="M 242.5 29 L 246 29.5 L 242.5 30 L 242.5 29 Z " /><path fill="rgb(88,154,209)" stroke="rgb(88,154,209)" stroke-width="1" opacity="0.4588235294117647" d="M 237.5 30 L 241 30.5 L 237.5 31 L 237.5 30 Z " /><path fill="rgb(88,154,209)" stroke="rgb(88,154,209)" stroke-width="1" opacity="0.4588235294117647" d="M 234.5 31 L 236 31.5 L 233 33.5 L 231.5 38 L 231 35.5 L 234.5 31 Z " /><path fill="rgb(88,154,209)" stroke="rgb(88,154,209)" stroke-width="1" opacity="0.4588235294117647" d="M 276.5 33 L 277 36.5 L 276 36.5 L 276.5 33 Z " /><path fill="rgb(88,154,209)" stroke="rgb(88,154,209)" stroke-width="1" opacity="0.4588235294117647" d="M 277.5 38 L 278 41.5 L 277 41.5 L 277.5 38 Z " /><path fill="rgb(88,154,209)" stroke="rgb(88,154,209)" stroke-width="1" opacity="0.4588235294117647" d="M 230.5 39 L 231 42.5 L 230 42.5 L 230.5 39 Z " /><path fill="rgb(88,154,209)" stroke="rgb(88,154,209)" stroke-width="1" opacity="0.4588235294117647" d="M 260.5 40 L 264 41.5 L 263.5 45 L 263 41 Q 259.7 41.8 260.5 40 Z " /><path fill="rgb(88,154,209)" stroke="rgb(88,154,209)" stroke-width="1" opacity="0.4588235294117647" d="M 255.5 41 L 259 41.5 L 255.5 42 L 255.5 41 Z " /><path fill="rgb(88,154,209)" stroke="rgb(88,154,209)" stroke-width="1" opacity="0.4588235294117647" d="M 250.5 42 L 254 42.5 L 250.5 43 L 250.5 42 Z " /><path fill="rgb(88,154,209)" stroke="rgb(88,154,209)" stroke-width="1" opacity="0.4588235294117647" d="M 245.5 43 L 249 43.5 L 245 44 L 244.5 46 L 244 44.5 L 245.5 43 Z " /><path fill="rgb(88,154,209)" stroke="rgb(88,154,209)" stroke-width="1" opacity="0.4588235294117647" d="M 278.5 43 L 279 46.5 L 278 46.5 L 278.5 43 Z " /><path fill="rgb(88,154,209)" stroke="rgb(88,154,209)" stroke-width="1" opacity="0.4588235294117647" d="M 229.5 44 L 230 47.5 L 229 47.5 L 229.5 44 Z " /><path fill="rgb(88,154,209)" stroke="rgb(88,154,209)" stroke-width="1" opacity="0.4588235294117647" d="M 264.5 46 L 265 49.5 L 264 49.5 L 264.5 46 Z " /><path fill="rgb(88,154,209)" stroke="rgb(88,154,209)" stroke-width="1" opacity="0.4588235294117647" d="M 243.5 47 L 244 49.5 L 243 49.5 L 243.5 47 Z " /><path fill="rgb(88,154,209)" stroke="rgb(88,154,209)" stroke-width="1" opacity="0.4588235294117647" d="M 279.5 48 L 280 50.5 L 279 50.5 L 279.5 48 Z " /><path fill="rgb(88,154,209)" stroke="rgb(88,154,209)" stroke-width="1" opacity="0.4588235294117647" d="M 228.5 49 L 229 51.5 L 228 51.5 L 228.5 49 Z " /><path fill="rgb(88,154,209)" stroke="rgb(88,154,209)" stroke-width="1" opacity="0.4588235294117647" d="M 242.5 51 L 243 54.5 L 242 54.5 L 242.5 51 Z " /><path fill="rgb(88,154,209)" stroke="rgb(88,154,209)" stroke-width="1" opacity="0.4588235294117647" d="M 265.5 51 L 266 54.5 L 265 54.5 L 265.5 51 Z " /><path fill="rgb(88,154,209)" stroke="rgb(88,154,209)" stroke-width="1" opacity="0.4588235294117647" d="M 280.5 52 L 281 55.5 L 280 55.5 L 280.5 52 Z " /><path fill="rgb(88,154,209)" stroke="rgb(88,154,209)" stroke-width="1" opacity="0.4588235294117647" d="M 227.5 53 L 228 56.5 L 227 56.5 L 227.5 53 Z " /><path fill="rgb(88,154,209)" stroke="rgb(88,154,209)" stroke-width="1" opacity="0.4588235294117647" d="M 241.5 56 L 242 59.5 L 241 59.5 L 241.5 56 Z " /><path fill="rgb(88,154,209)" stroke="rgb(88,154,209)" stroke-width="1" opacity="0.4588235294117647" d="M 266.5 56 L 267 59.5 L 266 59.5 L 266.5 56 Z " /><path fill="rgb(88,154,209)" stroke="rgb(88,154,209)" stroke-width="1" opacity="0.4588235294117647" d="M 281.5 57 L 282 60.5 L 281 60.5 L 281.5 57 Z " /><path fill="rgb(88,154,209)" stroke="rgb(88,154,209)" stroke-width="1" opacity="0.4588235294117647" d="M 226.5 58 L 227 61.5 L 226 61.5 L 226.5 58 Z " /><path fill="rgb(88,154,209)" stroke="rgb(88,154,209)" stroke-width="1" opacity="0.4588235294117647" d="M 319.5 58 L 327 58.5 L 319.5 59 L 319.5 58 Z " /><path fill="rgb(88,154,209)" stroke="rgb(88,154,209)" stroke-width="1" opacity="0.4588235294117647" d="M 315.5 59 L 318 59.5 L 315.5 60 L 315.5 59 Z " /><path fill="rgb(88,154,209)" stroke="rgb(88,154,209)" stroke-width="1" opacity="0.4588235294117647" d="M 310.5 60 L 314 60.5 L 310.5 61 L 310.5 60 Z " /><path fill="rgb(88,154,209)" stroke="rgb(88,154,209)" stroke-width="1" opacity="0.4588235294117647" d="M 240.5 61 L 241 64.5 L 240 64.5 L 240.5 61 Z " /><path fill="rgb(88,154,209)" stroke="rgb(88,154,209)" stroke-width="1" opacity="0.4588235294117647" d="M 267.5 61 L 268 63.5 L 267 63.5 L 267.5 61 Z " /><path fill="rgb(88,154,209)" stroke="rgb(88,154,209)" stroke-width="1" opacity="0.4588235294117647" d="M 306.5 61 L 309 61.5 L 306.5 62 L 306.5 61 Z " /><path fill="rgb(88,154,209)" stroke="rgb(88,154,209)" stroke-width="1" opacity="0.4588235294117647" d="M 282.5 62 L 283 66 L 287 66.5 L 283.5 67 Q 280.8 65.8 282.5 62 Z " /><path fill="rgb(88,154,209)" stroke="rgb(88,154,209)" stroke-width="1" opacity="0.4588235294117647" d="M 301.5 62 L 305 62.5 L 301.5 63 L 301.5 62 Z " /><path fill="rgb(88,154,209)" stroke="rgb(88,154,209)" stroke-width="1" opacity="0.4588235294117647" d="M 225.5 63 L 226 66.5 L 225 66.5 L 225.5 63 Z " /><path fill="rgb(88,154,209)" stroke="rgb(88,154,209)" stroke-width="1" opacity="0.4588235294117647" d="M 297.5 63 L 300 63.5 L 297.5 64 L 297.5 63 Z " /><path fill="rgb(88,154,209)" stroke="rgb(88,154,209)" stroke-width="1" opacity="0.4588235294117647" d="M 340.5 63 L 372.5 73 L 376 75.5 L 377 78.5 L 376 78.5 L 375 75 L 340.5 64 L 340.5 63 Z " /><path fill="rgb(88,154,209)" stroke="rgb(88,154,209)" stroke-width="1" opacity="0.4588235294117647" d="M 292.5 64 L 296 64.5 L 292.5 65 L 292.5 64 Z " /><path fill="rgb(88,154,209)" stroke="rgb(88,154,209)" stroke-width="1" opacity="0.4588235294117647" d="M 268.5 65 L 269 68.5 L 268 68.5 L 268.5 65 Z " /><path fill="rgb(88,154,209)" stroke="rgb(88,154,209)" stroke-width="1" opacity="0.4588235294117647" d="M 288.5 65 L 291 65.5 L 288.5 66 L 288.5 65 Z " /><path fill="rgb(88,154,209)" stroke="rgb(88,154,209)" stroke-width="1" opacity="0.4588235294117647" d="M 239.5 66 L 240 68.5 L 239 68.5 L 239.5 66 Z " /><path fill="rgb(88,154,209)" stroke="rgb(88,154,209)" stroke-width="1" opacity="0.4588235294117647" d="M 144.5 67 L 151 67.5 L 144.5 68 L 144.5 67 Z " /><path fill="rgb(88,154,209)" stroke="rgb(88,154,209)" stroke-width="1" opacity="0.4588235294117647" d="M 140.5 68 L 143 68.5 L 140.5 69 L 140.5 68 Z " /><path fill="rgb(88,154,209)" stroke="rgb(88,154,209)" stroke-width="1" opacity="0.4588235294117647" d="M 152.5 68 L 182.5 88 L 187 88.5 L 182.5 89 L 153.5 70 L 152.5 68 Z " /><path fill="rgb(88,154,209)" stroke="rgb(88,154,209)" stroke-width="1" opacity="0.4588235294117647" d="M 224.5 68 L 225 70.5 L 224 70.5 L 224.5 68 Z " /><path fill="rgb(88,154,209)" stroke="rgb(88,154,209)" stroke-width="1" opacity="0.4588235294117647" d="M 135.5 69 L 139 69.5 L 135.5 70 L 135.5 69 Z " /><path fill="rgb(88,154,209)" stroke="rgb(88,154,209)" stroke-width="1" opacity="0.4588235294117647" d="M 131.5 70 L 134 70.5 L 128 74.5 Q 127 81.5 130 84.5 L 129 84.5 Q 126 81.5 127 74.5 L 129.5 71 L 131.5 70 Z " /><path fill="rgb(88,154,209)" stroke="rgb(88,154,209)" stroke-width="1" opacity="0.4588235294117647" d="M 238.5 70 L 239 73.5 L 238 73.5 L 238.5 70 Z " /><path fill="rgb(88,154,209)" stroke="rgb(88,154,209)" stroke-width="1" opacity="0.4588235294117647" d="M 265.5 70 L 269 70.5 L 265.5 71 L 265.5 70 Z " /><path fill="rgb(88,154,209)" stroke="rgb(88,154,209)" stroke-width="1" opacity="0.4588235294117647" d="M 260.5 71 L 264 71.5 L 256.5 73 L 256.5 72 L 260.5 71 Z " /><path fill="rgb(88,154,209)" stroke="rgb(88,154,209)" stroke-width="1" opacity="0.4588235294117647" d="M 223.5 72 L 224 75.5 L 223 75.5 L 223.5 72 Z " /><path fill="rgb(88,154,209)" stroke="rgb(88,154,209)" stroke-width="1" opacity="0.4588235294117647" d="M 251.5 73 L 255 73.5 L 251.5 74 L 251.5 73 Z " /><path fill="rgb(88,154,209)" stroke="rgb(88,154,209)" stroke-width="1" opacity="0.4588235294117647" d="M 318.5 73 L 322 73.5 L 318.5 74 L 318.5 73 Z " /><path fill="rgb(88,154,209)" stroke="rgb(88,154,209)" stroke-width="1" opacity="0.4588235294117647" d="M 247.5 74 L 250 74.5 L 247.5 75 L 247.5 74 Z " /><path fill="rgb(88,154,209)" stroke="rgb(88,154,209)" stroke-width="1" opacity="0.4588235294117647" d="M 313.5 74 L 317 74.5 L 309.5 76 L 309.5 75 L 313.5 74 Z " /><path fill="rgb(88,154,209)" stroke="rgb(88,154,209)" stroke-width="1" opacity="0.4588235294117647" d="M 237.5 75 L 241.5 76 L 245.5 75 L 245.5 76 L 237 77 L 237.5 75 Z " /><path fill="rgb(88,154,209)" stroke="rgb(88,154,209)" stroke-width="1" opacity="0.4588235294117647" d="M 305.5 76 L 308 76.5 L 305.5 77 L 305.5 76 Z " /><path fill="rgb(88,154,209)" stroke="rgb(88,154,209)" stroke-width="1" opacity="0.4588235294117647" d="M 222.5 77 L 223 79.5 L 220.5 81 L 220.5 80 Q 223.4 80.7 222.5 77 Z " /><path fill="rgb(88,154,209)" stroke="rgb(88,154,209)" stroke-width="1" opacity="0.4588235294117647" d="M 300.5 77 L 303 77.5 L 300.5 78 L 300.5 77 Z " /><path fill="rgb(88,154,209)" stroke="rgb(88,154,209)" stroke-width="1" opacity="0.4588235294117647" d="M 295.5 78 L 299 78.5 L 295.5 79 L 295.5 78 Z " /><path fill="rgb(88,154,209)" stroke="rgb(88,154,209)" stroke-width="1" opacity="0.4588235294117647" d="M 291.5 79 L 294 79.5 L 291.5 80 L 291.5 79 Z " /><path fill="rgb(88,154,209)" stroke="rgb(88,154,209)" stroke-width="1" opacity="0.4588235294117647" d="M 286.5 80 L 290 80.5 L 286.5 81 L 286.5 80 Z " /><path fill="rgb(88,154,209)" stroke="rgb(88,154,209)" stroke-width="1" opacity="0.4588235294117647" d="M 377.5 80 L 378 88.5 L 377 88.5 L 377.5 80 Z " /><path fill="rgb(88,154,209)" stroke="rgb(88,154,209)" stroke-width="1" opacity="0.4588235294117647" d="M 215.5 81 L 219 81.5 L 215.5 82 L 215.5 81 Z " /><path fill="rgb(88,154,209)" stroke="rgb(88,154,209)" stroke-width="1" opacity="0.4588235294117647" d="M 282.5 81 L 285 81.5 L 282.5 82 L 282.5 81 Z " /><path fill="rgb(88,154,209)" stroke="rgb(88,154,209)" stroke-width="1" opacity="0.4588235294117647" d="M 348.5 81 L 362.5 85 L 364 86.5 L 362.5 86 L 348.5 82 L 348.5 81 Z " /><path fill="rgb(88,154,209)" stroke="rgb(88,154,209)" stroke-width="1" opacity="0.4588235294117647" d="M 144 82 L 149.5 83 L 177.5 102 L 186 103.5 L 179.5 104 L 149.5 84 L 145.5 83 L 144 83.5 L 144 82 Z " /><path fill="rgb(88,154,209)" stroke="rgb(88,154,209)" stroke-width="1" opacity="0.4588235294117647" d="M 211.5 82 L 214 82.5 L 211.5 83 L 211.5 82 Z " /><path fill="rgb(88,154,209)" stroke="rgb(88,154,209)" stroke-width="1" opacity="0.4588235294117647" d="M 277.5 82 L 281 82.5 L 277.5 83 L 277.5 82 Z " /><path fill="rgb(88,154,209)" stroke="rgb(88,154,209)" stroke-width="1" opacity="0.4588235294117647" d="M 206.5 83 L 210 83.5 L 206.5 84 L 206.5 83 Z " /><path fill="rgb(88,154,209)" stroke="rgb(88,154,209)" stroke-width="1" opacity="0.4588235294117647" d="M 273.5 83 L 276 83.5 L 273.5 84 L 273.5 83 Z " /><path fill="rgb(88,154,209)" stroke="rgb(88,154,209)" stroke-width="1" opacity="0.4588235294117647" d="M 202.5 84 L 205 84.5 L 202.5 85 L 202.5 84 Z " /><path fill="rgb(88,154,209)" stroke="rgb(88,154,209)" stroke-width="1" opacity="0.4588235294117647" d="M 268.5 84 L 272 84.5 L 268.5 85 L 268.5 84 Z " /><path fill="rgb(88,154,209)" stroke="rgb(88,154,209)" stroke-width="1" opacity="0.4588235294117647" d="M 145.5 85 L 148 90.5 L 147 90.5 L 145.5 85 Z " /><path fill="rgb(88,154,209)" stroke="rgb(88,154,209)" stroke-width="1" opacity="0.4588235294117647" d="M 197.5 85 L 201 85.5 L 197.5 86 L 197.5 85 Z " /><path fill="rgb(88,154,209)" stroke="rgb(88,154,209)" stroke-width="1" opacity="0.4588235294117647" d="M 264.5 85 L 267 85.5 L 264.5 86 L 264.5 85 Z " /><path fill="rgb(88,154,209)" stroke="rgb(88,154,209)" stroke-width="1" opacity="0.4588235294117647" d="M 130.5 86 L 133 91.5 L 132 91.5 L 130.5 86 Z " /><path fill="rgb(88,154,209)" stroke="rgb(88,154,209)" stroke-width="1" opacity="0.4588235294117647" d="M 193.5 86 L 196 86.5 L 193.5 87 L 193.5 86 Z " /><path fill="rgb(88,154,209)" stroke="rgb(88,154,209)" stroke-width="1" opacity="0.4588235294117647" d="M 259.5 86 L 263 86.5 L 259.5 87 L 259.5 86 Z " /><path fill="rgb(88,154,209)" stroke="rgb(88,154,209)" stroke-width="1" opacity="0.4588235294117647" d="M 188.5 87 L 192 87.5 L 188.5 88 L 188.5 87 Z " /><path fill="rgb(88,154,209)" stroke="rgb(88,154,209)" stroke-width="1" opacity="0.4588235294117647" d="M 255.5 87 L 258 87.5 L 255.5 88 L 255.5 87 Z " /><path fill="rgb(88,154,209)" stroke="rgb(88,154,209)" stroke-width="1" opacity="0.4588235294117647" d="M 250.5 88 L 254 88.5 L 250.5 89 L 250.5 88 Z " /><path fill="rgb(88,154,209)" stroke="rgb(88,154,209)" stroke-width="1" opacity="0.4588235294117647" d="M 362.5 88 L 363 89.5 L 357.5 96 L 354.5 97 L 354.5 96 L 361 91.5 L 362.5 88 Z " /><path fill="rgb(88,154,209)" stroke="rgb(88,154,209)" stroke-width="1" opacity="0.4588235294117647" d="M 245.5 89 L 249 89.5 L 241.5 91 L 241.5 90 L 245.5 89 Z " /><path fill="rgb(88,154,209)" stroke="rgb(88,154,209)" stroke-width="1" opacity="0.4588235294117647" d="M 376.5 90 L 377 92.5 L 376 92.5 L 376.5 90 Z " /><path fill="rgb(88,154,209)" stroke="rgb(88,154,209)" stroke-width="1" opacity="0.4588235294117647" d="M 236.5 91 L 240 91.5 L 232.5 93 L 232.5 92 L 236.5 91 Z " /><path fill="rgb(88,154,209)" stroke="rgb(88,154,209)" stroke-width="1" opacity="0.4588235294117647" d="M 148.5 92 L 153 102.5 L 152 102.5 L 148.5 92 Z " /><path fill="rgb(88,154,209)" stroke="rgb(88,154,209)" stroke-width="1" opacity="0.4588235294117647" d="M 133.5 93 L 138 103.5 L 137 103.5 L 133.5 93 Z " /><path fill="rgb(88,154,209)" stroke="rgb(88,154,209)" stroke-width="1" opacity="0.4588235294117647" d="M 228.5 93 L 231 93.5 L 228.5 94 L 228.5 93 Z " /><path fill="rgb(88,154,209)" stroke="rgb(88,154,209)" stroke-width="1" opacity="0.4588235294117647" d="M 223.5 94 L 226 94.5 L 223.5 95 L 223.5 94 Z " /><path fill="rgb(88,154,209)" stroke="rgb(88,154,209)" stroke-width="1" opacity="0.4588235294117647" d="M 375.5 94 L 376 95.5 Q 373 103 366.5 107 L 362.5 109 L 362.5 108 L 373 99.5 L 375.5 94 Z " /><path fill="rgb(88,154,209)" stroke="rgb(88,154,209)" stroke-width="1" opacity="0.4588235294117647" d="M 218.5 95 L 222 95.5 L 218.5 96 L 218.5 95 Z " /><path fill="rgb(88,154,209)" stroke="rgb(88,154,209)" stroke-width="1" opacity="0.4588235294117647" d="M 214.5 96 L 217 96.5 L 214.5 97 L 214.5 96 Z " /><path fill="rgb(88,154,209)" stroke="rgb(88,154,209)" stroke-width="1" opacity="0.4588235294117647" d="M 209.5 97 L 213 97.5 L 209.5 98 L 209.5 97 Z " /><path fill="rgb(88,154,209)" stroke="rgb(88,154,209)" stroke-width="1" opacity="0.4588235294117647" d="M 350.5 97 L 353 97.5 L 350.5 98 L 350.5 97 Z " /><path fill="rgb(88,154,209)" stroke="rgb(88,154,209)" stroke-width="1" opacity="0.4588235294117647" d="M 205.5 98 L 208 98.5 L 205.5 99 L 205.5 98 Z " /><path fill="rgb(88,154,209)" stroke="rgb(88,154,209)" stroke-width="1" opacity="0.4588235294117647" d="M 345.5 98 L 349 98.5 L 345.5 99 L 345.5 98 Z " /><path fill="rgb(88,154,209)" stroke="rgb(88,154,209)" stroke-width="1" opacity="0.4588235294117647" d="M 200.5 99 L 204 99.5 L 200.5 100 L 200.5 99 Z " /><path fill="rgb(88,154,209)" stroke="rgb(88,154,209)" stroke-width="1" opacity="0.4588235294117647" d="M 340.5 99 L 344 99.5 L 340.5 100 L 340.5 99 Z " /><path fill="rgb(88,154,209)" stroke="rgb(88,154,209)" stroke-width="1" opacity="0.4588235294117647" d="M 196.5 100 L 199 100.5 L 196.5 101 L 196.5 100 Z " /><path fill="rgb(88,154,209)" stroke="rgb(88,154,209)" stroke-width="1" opacity="0.4588235294117647" d="M 278.5 100 L 280 100.5 L 276 103.5 L 275.5 106 L 275 103.5 L 278.5 100 Z " /><path fill="rgb(88,154,209)" stroke="rgb(88,154,209)" stroke-width="1" opacity="0.4588235294117647" d="M 284.5 100 L 289 103.5 L 288.5 105 L 285.5 101 L 284.5 100 Z " /><path fill="rgb(88,154,209)" stroke="rgb(88,154,209)" stroke-width="1" opacity="0.4588235294117647" d="M 335.5 100 L 339 100.5 L 335.5 101 L 335.5 100 Z " /><path fill="rgb(88,154,209)" stroke="rgb(88,154,209)" stroke-width="1" opacity="0.4588235294117647" d="M 191.5 101 L 195 101.5 L 191.5 102 L 191.5 101 Z " /><path fill="rgb(88,154,209)" stroke="rgb(88,154,209)" stroke-width="1" opacity="0.4588235294117647" d="M 331.5 101 L 334 101.5 L 331.5 102 L 331.5 101 Z " /><path fill="rgb(88,154,209)" stroke="rgb(88,154,209)" stroke-width="1" opacity="0.4588235294117647" d="M 187.5 102 L 190 102.5 L 187.5 103 L 187.5 102 Z " /><path fill="rgb(88,154,209)" stroke="rgb(88,154,209)" stroke-width="1" opacity="0.4588235294117647" d="M 326.5 102 L 330 102.5 L 326.5 103 L 326.5 102 Z " /><path fill="rgb(88,154,209)" stroke="rgb(88,154,209)" stroke-width="1" opacity="0.4588235294117647" d="M 321.5 103 L 325 103.5 L 321.5 104 L 321.5 103 Z " /><path fill="rgb(88,154,209)" stroke="rgb(88,154,209)" stroke-width="1" opacity="0.4588235294117647" d="M 153.5 104 L 156 109.5 L 155 109.5 L 153.5 104 Z " /><path fill="rgb(88,154,209)" stroke="rgb(88,154,209)" stroke-width="1" opacity="0.4588235294117647" d="M 316.5 104 L 320 104.5 L 316.5 105 L 316.5 104 Z " /><path fill="rgb(88,154,209)" stroke="rgb(88,154,209)" stroke-width="1" opacity="0.4588235294117647" d="M 138.5 105 L 141 110.5 L 140 110.5 L 138.5 105 Z " /><path fill="rgb(88,154,209)" stroke="rgb(88,154,209)" stroke-width="1" opacity="0.4588235294117647" d="M 312.5 105 L 315 105.5 L 312.5 106 L 312.5 105 Z " /><path fill="rgb(88,154,209)" stroke="rgb(88,154,209)" stroke-width="1" opacity="0.4588235294117647" d="M 307.5 106 L 311 106.5 L 307.5 107 L 307.5 106 Z " /><path fill="rgb(88,154,209)" stroke="rgb(88,154,209)" stroke-width="1" opacity="0.4588235294117647" d="M 274.5 107 L 275 110.5 L 274 110.5 L 274.5 107 Z " /><path fill="rgb(88,154,209)" stroke="rgb(88,154,209)" stroke-width="1" opacity="0.4588235294117647" d="M 302.5 107 L 306 107.5 L 302.5 108 L 302.5 107 Z " /><path fill="rgb(88,154,209)" stroke="rgb(88,154,209)" stroke-width="1" opacity="0.4588235294117647" d="M 297.5 108 L 301 108.5 L 297.5 109 L 297.5 108 Z " /><path fill="rgb(88,154,209)" stroke="rgb(88,154,209)" stroke-width="1" opacity="0.4588235294117647" d="M 288.5 109 L 292 110.5 L 288 111 L 288.5 109 Z " /><path fill="rgb(88,154,209)" stroke="rgb(88,154,209)" stroke-width="1" opacity="0.4588235294117647" d="M 293.5 109 L 296 109.5 L 293.5 110 L 293.5 109 Z " /><path fill="rgb(88,154,209)" stroke="rgb(88,154,209)" stroke-width="1" opacity="0.4588235294117647" d="M 226.5 110 Q 232.9 110.1 235 114.5 L 234.5 117 L 231.5 112 L 226.5 111 L 226.5 110 Z " /><path fill="rgb(88,154,209)" stroke="rgb(88,154,209)" stroke-width="1" opacity="0.4588235294117647" d="M 355.5 110 L 358 110.5 L 355.5 111 L 355.5 110 Z " /><path fill="rgb(88,154,209)" stroke="rgb(88,154,209)" stroke-width="1" opacity="0.4588235294117647" d="M 156.5 111 L 159 116.5 L 158 116.5 L 156.5 111 Z " /><path fill="rgb(88,154,209)" stroke="rgb(88,154,209)" stroke-width="1" opacity="0.4588235294117647" d="M 223.5 111 L 225 111.5 L 221 114.5 L 223.5 111 Z " /><path fill="rgb(88,154,209)" stroke="rgb(88,154,209)" stroke-width="1" opacity="0.4588235294117647" d="M 351.5 111 L 354 111.5 L 351.5 112 L 351.5 111 Z " /><path fill="rgb(88,154,209)" stroke="rgb(88,154,209)" stroke-width="1" opacity="0.4588235294117647" d="M 141.5 112 L 146 122.5 L 145 122.5 L 141.5 112 Z " /><path fill="rgb(88,154,209)" stroke="rgb(88,154,209)" stroke-width="1" opacity="0.4588235294117647" d="M 273.5 112 L 274 115.5 L 273 115.5 L 273.5 112 Z " /><path fill="rgb(88,154,209)" stroke="rgb(88,154,209)" stroke-width="1" opacity="0.4588235294117647" d="M 346.5 112 L 349 112.5 L 346.5 113 L 346.5 112 Z " /><path fill="rgb(88,154,209)" stroke="rgb(88,154,209)" stroke-width="1" opacity="0.4588235294117647" d="M 341.5 113 L 345 113.5 L 341.5 114 L 341.5 113 Z " /><path fill="rgb(88,154,209)" stroke="rgb(88,154,209)" stroke-width="1" opacity="0.4588235294117647" d="M 336.5 114 L 340 114.5 L 336.5 115 L 336.5 114 Z " /><path fill="rgb(88,154,209)" stroke="rgb(88,154,209)" stroke-width="1" opacity="0.4588235294117647" d="M 332.5 115 L 335 115.5 L 332.5 116 L 332.5 115 Z " /><path fill="rgb(88,154,209)" stroke="rgb(88,154,209)" stroke-width="1" opacity="0.4588235294117647" d="M 220.5 116 L 221 119.5 L 220 119.5 L 220.5 116 Z " /><path fill="rgb(88,154,209)" stroke="rgb(88,154,209)" stroke-width="1" opacity="0.4588235294117647" d="M 327.5 116 L 331 116.5 L 327.5 117 L 327.5 116 Z " /><path fill="rgb(88,154,209)" stroke="rgb(88,154,209)" stroke-width="1" opacity="0.4588235294117647" d="M 272.5 117 L 273 121.5 L 272 121.5 L 272.5 117 Z " /><path fill="rgb(88,154,209)" stroke="rgb(88,154,209)" stroke-width="1" opacity="0.4588235294117647" d="M 322.5 117 L 326 117.5 L 322.5 118 L 322.5 117 Z " /><path fill="rgb(88,154,209)" stroke="rgb(88,154,209)" stroke-width="1" opacity="0.4588235294117647" d="M 159.5 118 L 162 123.5 L 161 123.5 L 159.5 118 Z " /><path fill="rgb(88,154,209)" stroke="rgb(88,154,209)" stroke-width="1" opacity="0.4588235294117647" d="M 235.5 118 L 236 121.5 L 235 121.5 L 235.5 118 Z " /><path fill="rgb(88,154,209)" stroke="rgb(88,154,209)" stroke-width="1" opacity="0.4588235294117647" d="M 318.5 118 L 321 118.5 L 318.5 119 L 318.5 118 Z " /><path fill="rgb(88,154,209)" stroke="rgb(88,154,209)" stroke-width="1" opacity="0.4588235294117647" d="M 313.5 119 L 317 119.5 L 313.5 120 L 313.5 119 Z " /><path fill="rgb(88,154,209)" stroke="rgb(88,154,209)" stroke-width="1" opacity="0.4588235294117647" d="M 308.5 120 L 312 120.5 L 308.5 121 L 308.5 120 Z " /><path fill="rgb(88,154,209)" stroke="rgb(88,154,209)" stroke-width="1" opacity="0.4588235294117647" d="M 221.5 121 L 222 125 L 220 124.5 L 221.5 121 Z " /><path fill="rgb(88,154,209)" stroke="rgb(88,154,209)" stroke-width="1" opacity="0.4588235294117647" d="M 303.5 121 L 307 121.5 L 303.5 122 L 303.5 121 Z " /><path fill="rgb(88,154,209)" stroke="rgb(88,154,209)" stroke-width="1" opacity="0.4588235294117647" d="M 299.5 122 L 302 122.5 L 299.5 123 L 299.5 122 Z " /><path fill="rgb(88,154,209)" stroke="rgb(88,154,209)" stroke-width="1" opacity="0.4588235294117647" d="M 236.5 123 L 237 125.5 L 236 125.5 L 236.5 123 Z " /><path fill="rgb(88,154,209)" stroke="rgb(88,154,209)" stroke-width="1" opacity="0.4588235294117647" d="M 271.5 123 L 272 126.5 L 271 126.5 L 271.5 123 Z " /><path fill="rgb(88,154,209)" stroke="rgb(88,154,209)" stroke-width="1" opacity="0.4588235294117647" d="M 294.5 123 L 298 123.5 L 294.5 124 L 294.5 123 Z " /><path fill="rgb(88,154,209)" stroke="rgb(88,154,209)" stroke-width="1" opacity="0.4588235294117647" d="M 146.5 124 L 149 129.5 L 148 129.5 L 146.5 124 Z " /><path fill="rgb(88,154,209)" stroke="rgb(88,154,209)" stroke-width="1" opacity="0.4588235294117647" d="M 289.5 124 L 293 124.5 L 289.5 125 L 289.5 124 Z " /><path fill="rgb(88,154,209)" stroke="rgb(88,154,209)" stroke-width="1" opacity="0.4588235294117647" d="M 162.5 125 L 167 135.5 L 166 135.5 L 162.5 125 Z " /><path fill="rgb(88,154,209)" stroke="rgb(88,154,209)" stroke-width="1" opacity="0.4588235294117647" d="M 215.5 125 L 219 125.5 L 215.5 126 L 215.5 125 Z " /><path fill="rgb(88,154,209)" stroke="rgb(88,154,209)" stroke-width="1" opacity="0.4588235294117647" d="M 286.5 125 L 288 125.5 L 286 126 L 285.5 130 L 285 126.5 L 286.5 125 Z " /><path fill="rgb(88,154,209)" stroke="rgb(88,154,209)" stroke-width="1" opacity="0.4588235294117647" d="M 210.5 126 L 214 126.5 L 210.5 127 L 210.5 126 Z " /><path fill="rgb(88,154,209)" stroke="rgb(88,154,209)" stroke-width="1" opacity="0.4588235294117647" d="M 206.5 127 L 209 127.5 L 206.5 128 L 206.5 127 Z " /><path fill="rgb(88,154,209)" stroke="rgb(88,154,209)" stroke-width="1" opacity="0.4588235294117647" d="M 237.5 127 L 238 130.5 L 237 130.5 L 237.5 127 Z " /><path fill="rgb(88,154,209)" stroke="rgb(88,154,209)" stroke-width="1" opacity="0.4588235294117647" d="M 201.5 128 L 205 128.5 L 201.5 129 L 201.5 128 Z " /><path fill="rgb(88,154,209)" stroke="rgb(88,154,209)" stroke-width="1" opacity="0.4588235294117647" d="M 270.5 128 L 271 131.5 L 270 131.5 L 270.5 128 Z " /><path fill="rgb(88,154,209)" stroke="rgb(88,154,209)" stroke-width="1" opacity="0.4588235294117647" d="M 196.5 129 L 200 129.5 L 196.5 130 L 196.5 129 Z " /><path fill="rgb(88,154,209)" stroke="rgb(88,154,209)" stroke-width="1" opacity="0.4588235294117647" d="M 191.5 130 L 195 130.5 L 191.5 131 L 191.5 130 Z " /><path fill="rgb(88,154,209)" stroke="rgb(88,154,209)" stroke-width="1" opacity="0.4588235294117647" d="M 149.5 131 L 154 141.5 L 153 141.5 L 149.5 131 Z " /><path fill="rgb(88,154,209)" stroke="rgb(88,154,209)" stroke-width="1" opacity="0.4588235294117647" d="M 187.5 131 L 190 131.5 L 187.5 132 L 187.5 131 Z " /><path fill="rgb(88,154,209)" stroke="rgb(88,154,209)" stroke-width="1" opacity="0.4588235294117647" d="M 284.5 131 L 285 134.5 L 284 134.5 L 284.5 131 Z " /><path fill="rgb(88,154,209)" stroke="rgb(88,154,209)" stroke-width="1" opacity="0.4588235294117647" d="M 182.5 132 L 186 132.5 L 182.5 133 L 182.5 132 Z " /><path fill="rgb(88,154,209)" stroke="rgb(88,154,209)" stroke-width="1" opacity="0.4588235294117647" d="M 238.5 132 L 239 135.5 L 238 135.5 L 238.5 132 Z " /><path fill="rgb(88,154,209)" stroke="rgb(88,154,209)" stroke-width="1" opacity="0.4588235294117647" d="M 177.5 133 L 181 133.5 L 177.5 134 L 177.5 133 Z " /><path fill="rgb(88,154,209)" stroke="rgb(88,154,209)" stroke-width="1" opacity="0.4588235294117647" d="M 269.5 133 L 270 137.5 L 269 137.5 L 269.5 133 Z " /><path fill="rgb(88,154,209)" stroke="rgb(88,154,209)" stroke-width="1" opacity="0.4588235294117647" d="M 173.5 134 L 176 134.5 L 173.5 135 L 173.5 134 Z " /><path fill="rgb(88,154,209)" stroke="rgb(88,154,209)" stroke-width="1" opacity="0.4588235294117647" d="M 168.5 135 L 171 135.5 L 168.5 136 L 168.5 135 Z " /><path fill="rgb(88,154,209)" stroke="rgb(88,154,209)" stroke-width="1" opacity="0.4588235294117647" d="M 283.5 136 L 284 139.5 L 283 139.5 L 283.5 136 Z " /><path fill="rgb(88,154,209)" stroke="rgb(88,154,209)" stroke-width="1" opacity="0.4588235294117647" d="M 239.5 137 L 240 139.5 L 239 139.5 L 239.5 137 Z " /><path fill="rgb(88,154,209)" stroke="rgb(88,154,209)" stroke-width="1" opacity="0.4588235294117647" d="M 218.5 139 L 222 139.5 L 218.5 140 L 218.5 139 Z " /><path fill="rgb(88,154,209)" stroke="rgb(88,154,209)" stroke-width="1" opacity="0.4588235294117647" d="M 268.5 139 L 269 142.5 L 268 142.5 L 268.5 139 Z " /><path fill="rgb(88,154,209)" stroke="rgb(88,154,209)" stroke-width="1" opacity="0.4588235294117647" d="M 213.5 140 L 217 140.5 L 213.5 141 L 213.5 140 Z " /><path fill="rgb(88,154,209)" stroke="rgb(88,154,209)" stroke-width="1" opacity="0.4588235294117647" d="M 225.5 140 L 226 143.5 L 225 143.5 L 225.5 140 Z " /><path fill="rgb(88,154,209)" stroke="rgb(88,154,209)" stroke-width="1" opacity="0.4588235294117647" d="M 209.5 141 L 212 141.5 L 209.5 142 L 209.5 141 Z " /><path fill="rgb(88,154,209)" stroke="rgb(88,154,209)" stroke-width="1" opacity="0.4588235294117647" d="M 240.5 141 L 241 144.5 L 240 144.5 L 240.5 141 Z " /><path fill="rgb(88,154,209)" stroke="rgb(88,154,209)" stroke-width="1" opacity="0.4588235294117647" d="M 204.5 142 L 208 142.5 L 204.5 143 L 204.5 142 Z " /><path fill="rgb(88,154,209)" stroke="rgb(88,154,209)" stroke-width="1" opacity="0.4588235294117647" d="M 282.5 142 L 283 145.5 L 282 145.5 L 282.5 142 Z " /><path fill="rgb(88,154,209)" stroke="rgb(88,154,209)" stroke-width="1" opacity="0.4588235294117647" d="M 154.5 143 L 158.5 150 L 165 151.5 L 160.5 152 L 156 148.5 L 154.5 143 Z " /><path fill="rgb(88,154,209)" stroke="rgb(88,154,209)" stroke-width="1" opacity="0.4588235294117647" d="M 199.5 143 L 203 143.5 L 199.5 144 L 199.5 143 Z " /><path fill="rgb(88,154,209)" stroke="rgb(88,154,209)" stroke-width="1" opacity="0.4588235294117647" d="M 318.5 143 L 322 143.5 L 318.5 144 L 318.5 143 Z " /><path fill="rgb(88,154,209)" stroke="rgb(88,154,209)" stroke-width="1" opacity="0.4588235294117647" d="M 194.5 144 L 198 144.5 L 194.5 145 L 194.5 144 Z " /><path fill="rgb(88,154,209)" stroke="rgb(88,154,209)" stroke-width="1" opacity="0.4588235294117647" d="M 267.5 144 L 268 147.5 L 267 147.5 L 267.5 144 Z " /><path fill="rgb(88,154,209)" stroke="rgb(88,154,209)" stroke-width="1" opacity="0.4588235294117647" d="M 316.5 144 L 314 147.5 L 313.5 149 L 313 147.5 L 314 145 L 316.5 144 Z " /><path fill="rgb(88,154,209)" stroke="rgb(88,154,209)" stroke-width="1" opacity="0.4588235294117647" d="M 323.5 144 L 326 144.5 L 323.5 145 L 323.5 144 Z " /><path fill="rgb(88,154,209)" stroke="rgb(88,154,209)" stroke-width="1" opacity="0.4588235294117647" d="M 190.5 145 L 193 145.5 L 190.5 146 L 190.5 145 Z " /><path fill="rgb(88,154,209)" stroke="rgb(88,154,209)" stroke-width="1" opacity="0.4588235294117647" d="M 226.5 145 L 227 147.5 L 226 147.5 L 226.5 145 Z " /><path fill="rgb(88,154,209)" stroke="rgb(88,154,209)" stroke-width="1" opacity="0.4588235294117647" d="M 327.5 145 L 330 145.5 L 327.5 146 L 327.5 145 Z " /><path fill="rgb(88,154,209)" stroke="rgb(88,154,209)" stroke-width="1" opacity="0.4588235294117647" d="M 185.5 146 L 189 146.5 L 185.5 147 L 185.5 146 Z " /><path fill="rgb(88,154,209)" stroke="rgb(88,154,209)" stroke-width="1" opacity="0.4588235294117647" d="M 241.5 146 L 242 149.5 L 241 149.5 L 241.5 146 Z " /><path fill="rgb(88,154,209)" stroke="rgb(88,154,209)" stroke-width="1" opacity="0.4588235294117647" d="M 331.5 146 L 334 146.5 L 331.5 147 L 331.5 146 Z " /><path fill="rgb(88,154,209)" stroke="rgb(88,154,209)" stroke-width="1" opacity="0.4588235294117647" d="M 180.5 147 L 184 147.5 L 180.5 148 L 180.5 147 Z " /><path fill="rgb(88,154,209)" stroke="rgb(88,154,209)" stroke-width="1" opacity="0.4588235294117647" d="M 281.5 147 L 282 150.5 L 281 150.5 L 281.5 147 Z " /><path fill="rgb(88,154,209)" stroke="rgb(88,154,209)" stroke-width="1" opacity="0.4588235294117647" d="M 175.5 148 L 179 148.5 L 175.5 149 L 175.5 148 Z " /><path fill="rgb(88,154,209)" stroke="rgb(88,154,209)" stroke-width="1" opacity="0.4588235294117647" d="M 338.5 148 L 350 151.5 L 347.5 152 L 338.5 149 L 338.5 148 Z " /><path fill="rgb(88,154,209)" stroke="rgb(88,154,209)" stroke-width="1" opacity="0.4588235294117647" d="M 171.5 149 L 174 149.5 L 171.5 150 L 171.5 149 Z " /><path fill="rgb(88,154,209)" stroke="rgb(88,154,209)" stroke-width="1" opacity="0.4588235294117647" d="M 227.5 149 L 228 152.5 L 227 152.5 L 227.5 149 Z " /><path fill="rgb(88,154,209)" stroke="rgb(88,154,209)" stroke-width="1" opacity="0.4588235294117647" d="M 166.5 150 L 169 150.5 L 166.5 151 L 166.5 150 Z " /><path fill="rgb(88,154,209)" stroke="rgb(88,154,209)" stroke-width="1" opacity="0.4588235294117647" d="M 266.5 150 L 267 153.5 L 266 153.5 L 266.5 150 Z " /><path fill="rgb(88,154,209)" stroke="rgb(88,154,209)" stroke-width="1" opacity="0.4588235294117647" d="M 242.5 151 L 243 153.5 L 242 153.5 L 242.5 151 Z " /><path fill="rgb(88,154,209)" stroke="rgb(88,154,209)" stroke-width="1" opacity="0.4588235294117647" d="M 280.5 152 L 281 156.5 L 280 156.5 L 280.5 152 Z " /><path fill="rgb(88,154,209)" stroke="rgb(88,154,209)" stroke-width="1" opacity="0.4588235294117647" d="M 313.5 152 L 315.5 156 L 327 159.5 L 324.5 160 L 317.5 158 L 313 154.5 L 313.5 152 Z " /><path fill="rgb(88,154,209)" stroke="rgb(88,154,209)" stroke-width="1" opacity="0.4588235294117647" d="M 351.5 152 L 358 154.5 L 356.5 155 L 351.5 153 L 351.5 152 Z " /><path fill="rgb(88,154,209)" stroke="rgb(88,154,209)" stroke-width="1" opacity="0.4588235294117647" d="M 228.5 154 L 229 157.5 L 228 157.5 L 228.5 154 Z " /><path fill="rgb(88,154,209)" stroke="rgb(88,154,209)" stroke-width="1" opacity="0.4588235294117647" d="M 243.5 155 L 244 158.5 L 243 158.5 L 243.5 155 Z " /><path fill="rgb(88,154,209)" stroke="rgb(88,154,209)" stroke-width="1" opacity="0.4588235294117647" d="M 265.5 155 L 266 158.5 L 265 158.5 L 265.5 155 Z " /><path fill="rgb(88,154,209)" stroke="rgb(88,154,209)" stroke-width="1" opacity="0.4588235294117647" d="M 359.5 155 L 363 156.5 L 361.5 157 L 359.5 155 Z " /><path fill="rgb(88,154,209)" stroke="rgb(88,154,209)" stroke-width="1" opacity="0.4588235294117647" d="M 364.5 157 L 368 158.5 L 366.5 159 L 364.5 157 Z " /><path fill="rgb(88,154,209)" stroke="rgb(88,154,209)" stroke-width="1" opacity="0.4588235294117647" d="M 279.5 158 L 280 161.5 L 279 161.5 L 279.5 158 Z " /><path fill="rgb(88,154,209)" stroke="rgb(88,154,209)" stroke-width="1" opacity="0.4588235294117647" d="M 229.5 159 L 230 162.5 L 229 162.5 L 229.5 159 Z " /><path fill="rgb(88,154,209)" stroke="rgb(88,154,209)" stroke-width="1" opacity="0.4588235294117647" d="M 369.5 159 Q 376.4 160.5 380 165.5 L 379.5 167 L 376.5 163 L 369.5 160 L 369.5 159 Z " /><path fill="rgb(88,154,209)" stroke="rgb(88,154,209)" stroke-width="1" opacity="0.4588235294117647" d="M 136.5 160 Q 143.4 159.1 145 163.5 L 146 169.5 L 142.5 174 L 144 171.5 L 145 165.5 L 142.5 162 L 136.5 161 L 136.5 160 Z " /><path fill="rgb(88,154,209)" stroke="rgb(88,154,209)" stroke-width="1" opacity="0.4588235294117647" d="M 244.5 160 L 245 163.5 L 244 163.5 L 244.5 160 Z " /><path fill="rgb(88,154,209)" stroke="rgb(88,154,209)" stroke-width="1" opacity="0.4588235294117647" d="M 264.5 160 L 265 163.5 L 263.5 165 L 256.5 166 L 256.5 165 L 264 164 L 264.5 160 Z " /><path fill="rgb(88,154,209)" stroke="rgb(88,154,209)" stroke-width="1" opacity="0.4588235294117647" d="M 328.5 160 L 334 161.5 L 331.5 162 L 328.5 161 L 328.5 160 Z " /><path fill="rgb(88,154,209)" stroke="rgb(88,154,209)" stroke-width="1" opacity="0.4588235294117647" d="M 133.5 161 L 135 161.5 L 112.5 173 L 113.5 171 L 133.5 161 Z " /><path fill="rgb(88,154,209)" stroke="rgb(88,154,209)" stroke-width="1" opacity="0.4588235294117647" d="M 278.5 163 L 279 166.5 L 278 166.5 L 278.5 163 Z " /><path fill="rgb(88,154,209)" stroke="rgb(88,154,209)" stroke-width="1" opacity="0.4588235294117647" d="M 338.5 163 L 346 165.5 L 344.5 166 L 338.5 164 L 338.5 163 Z " /><path fill="rgb(88,154,209)" stroke="rgb(88,154,209)" stroke-width="1" opacity="0.4588235294117647" d="M 230.5 164 L 231 166.5 L 230 166.5 L 230.5 164 Z " /><path fill="rgb(88,154,209)" stroke="rgb(88,154,209)" stroke-width="1" opacity="0.4588235294117647" d="M 245.5 165 L 246 167 L 250 167.5 L 245 168 L 245.5 165 Z " /><path fill="rgb(88,154,209)" stroke="rgb(88,154,209)" stroke-width="1" opacity="0.4588235294117647" d="M 251.5 166 L 255 166.5 L 251.5 167 L 251.5 166 Z " /><path fill="rgb(88,154,209)" stroke="rgb(88,154,209)" stroke-width="1" opacity="0.4588235294117647" d="M 350.5 167 L 354 168.5 L 352.5 169 L 350.5 167 Z " /><path fill="rgb(88,154,209)" stroke="rgb(88,154,209)" stroke-width="1" opacity="0.4588235294117647" d="M 231.5 168 L 232 171.5 L 231 171.5 L 231.5 168 Z " /><path fill="rgb(88,154,209)" stroke="rgb(88,154,209)" stroke-width="1" opacity="0.4588235294117647" d="M 277.5 168 L 278 171.5 L 277 171.5 L 277.5 168 Z " /><path fill="rgb(88,154,209)" stroke="rgb(88,154,209)" stroke-width="1" opacity="0.4588235294117647" d="M 355.5 169 L 359 170.5 L 357.5 171 L 355.5 169 Z " /><path fill="rgb(88,154,209)" stroke="rgb(88,154,209)" stroke-width="1" opacity="0.4588235294117647" d="M 360.5 171 L 366 173.5 L 364.5 174 L 360.5 172 L 360.5 171 Z " /><path fill="rgb(88,154,209)" stroke="rgb(88,154,209)" stroke-width="1" opacity="0.4588235294117647" d="M 379.5 171 L 380 172.5 Q 379.5 176.5 374.5 176 L 374.5 175 Q 378.5 175.5 379 172.5 L 379.5 171 Z " /><path fill="rgb(88,154,209)" stroke="rgb(88,154,209)" stroke-width="1" opacity="0.4588235294117647" d="M 110.5 173 L 109.5 175 Q 95.4 181.4 84.5 191 L 86.5 188 L 110.5 173 Z " /><path fill="rgb(88,154,209)" stroke="rgb(88,154,209)" stroke-width="1" opacity="0.4588235294117647" d="M 232.5 173 L 233 176.5 L 232 176.5 L 232.5 173 Z " /><path fill="rgb(88,154,209)" stroke="rgb(88,154,209)" stroke-width="1" opacity="0.4588235294117647" d="M 276.5 173 L 277 174.5 L 273.5 177 L 276.5 173 Z " /><path fill="rgb(88,154,209)" stroke="rgb(88,154,209)" stroke-width="1" opacity="0.4588235294117647" d="M 139.5 174 L 141 174.5 L 119.5 185 L 93.5 202 L 91.5 202 L 91.5 201 L 93.5 201 L 119.5 184 L 139.5 174 Z " /><path fill="rgb(88,154,209)" stroke="rgb(88,154,209)" stroke-width="1" opacity="0.4588235294117647" d="M 367.5 174 L 371 175.5 L 369.5 176 L 367.5 174 Z " /><path fill="rgb(88,154,209)" stroke="rgb(88,154,209)" stroke-width="1" opacity="0.4588235294117647" d="M 268.5 177 L 272 177.5 L 268.5 178 L 268.5 177 Z " /><path fill="rgb(88,154,209)" stroke="rgb(88,154,209)" stroke-width="1" opacity="0.4588235294117647" d="M 233.5 178 L 237.5 183 L 243 183.5 L 237.5 184 L 234 182 L 233.5 178 Z " /><path fill="rgb(88,154,209)" stroke="rgb(88,154,209)" stroke-width="1" opacity="0.4588235294117647" d="M 263.5 178 L 267 178.5 L 263.5 179 L 263.5 178 Z " /><path fill="rgb(88,154,209)" stroke="rgb(88,154,209)" stroke-width="1" opacity="0.4588235294117647" d="M 259.5 179 L 262 179.5 L 259.5 180 L 259.5 179 Z " /><path fill="rgb(88,154,209)" stroke="rgb(88,154,209)" stroke-width="1" opacity="0.4588235294117647" d="M 403.5 179 L 407.5 179 L 420.5 187 Q 439.9 200.1 456 216.5 L 457 221.5 L 456 221.5 Q 455.6 213.4 449.5 211 L 420.5 188 L 407.5 180 L 403.5 180 L 399.5 183 L 401.5 180 L 403.5 179 Z " /><path fill="rgb(88,154,209)" stroke="rgb(88,154,209)" stroke-width="1" opacity="0.4588235294117647" d="M 254.5 180 L 258 180.5 L 254.5 181 L 254.5 180 Z " /><path fill="rgb(88,154,209)" stroke="rgb(88,154,209)" stroke-width="1" opacity="0.4588235294117647" d="M 249.5 181 L 253 181.5 L 249.5 182 L 249.5 181 Z " /><path fill="rgb(88,154,209)" stroke="rgb(88,154,209)" stroke-width="1" opacity="0.4588235294117647" d="M 244.5 182 L 248 182.5 L 244.5 183 L 244.5 182 Z " /><path fill="rgb(88,154,209)" stroke="rgb(88,154,209)" stroke-width="1" opacity="0.4588235294117647" d="M 398.5 184 Q 397.8 191.2 402.5 193 Q 427 207.5 446.5 227 L 451.5 227 L 455 224.5 L 455.5 223 L 456 224.5 Q 454.1 229.1 446.5 228 L 423.5 208 L 402.5 194 L 398 189.5 L 398.5 184 Z " /><path fill="rgb(88,154,209)" stroke="rgb(88,154,209)" stroke-width="1" opacity="0.4588235294117647" d="M 83.5 192 Q 82.8 199.2 87.5 201 L 90 201.5 L 87.5 202 L 84 199.5 L 83.5 192 Z " /><path fill="rgb(88,154,209)" stroke="rgb(88,154,209)" stroke-width="1" opacity="0.4588235294117647" d="M 245.5 201 L 263 201.5 L 245.5 202 L 245.5 201 Z " /><path fill="rgb(88,154,209)" stroke="rgb(88,154,209)" stroke-width="1" opacity="0.4588235294117647" d="M 231.5 202 L 240 202.5 L 231.5 203 L 231.5 202 Z " /><path fill="rgb(88,154,209)" stroke="rgb(88,154,209)" stroke-width="1" opacity="0.4588235294117647" d="M 270.5 202 L 278 202.5 L 270.5 203 L 270.5 202 Z " /><path fill="rgb(88,154,209)" stroke="rgb(88,154,209)" stroke-width="1" opacity="0.4588235294117647" d="M 222.5 203 L 229 203.5 L 222.5 204 L 222.5 203 Z " /><path fill="rgb(88,154,209)" stroke="rgb(88,154,209)" stroke-width="1" opacity="0.4588235294117647" d="M 281.5 203 L 286 203.5 L 281.5 204 L 281.5 203 Z " /><path fill="rgb(88,154,209)" stroke="rgb(88,154,209)" stroke-width="1" opacity="0.4588235294117647" d="M 216.5 204 L 221 204.5 L 216.5 205 L 216.5 204 Z " /><path fill="rgb(88,154,209)" stroke="rgb(88,154,209)" stroke-width="1" opacity="0.4588235294117647" d="M 288.5 204 L 293 204.5 L 288.5 205 L 288.5 204 Z " /><path fill="rgb(88,154,209)" stroke="rgb(88,154,209)" stroke-width="1" opacity="0.4588235294117647" d="M 210.5 205 L 215 205.5 L 210.5 206 L 210.5 205 Z " /><path fill="rgb(88,154,209)" stroke="rgb(88,154,209)" stroke-width="1" opacity="0.4588235294117647" d="M 295.5 205 L 299 205.5 L 295.5 206 L 295.5 205 Z " /><path fill="rgb(88,154,209)" stroke="rgb(88,154,209)" stroke-width="1" opacity="0.4588235294117647" d="M 205.5 206 L 209 206.5 L 201.5 208 L 201.5 207 L 205.5 206 Z " /><path fill="rgb(88,154,209)" stroke="rgb(88,154,209)" stroke-width="1" opacity="0.4588235294117647" d="M 300.5 206 L 304 206.5 L 300.5 207 L 300.5 206 Z " /><path fill="rgb(88,154,209)" stroke="rgb(88,154,209)" stroke-width="1" opacity="0.4588235294117647" d="M 305.5 207 L 308 207.5 L 305.5 208 L 305.5 207 Z " /><path fill="rgb(88,154,209)" stroke="rgb(88,154,209)" stroke-width="1" opacity="0.4588235294117647" d="M 309.5 208 L 312 208.5 L 309.5 209 L 309.5 208 Z " /><path fill="rgb(88,154,209)" stroke="rgb(88,154,209)" stroke-width="1" opacity="0.4588235294117647" d="M 194.5 209 L 197 209.5 L 194.5 210 L 194.5 209 Z " /><path fill="rgb(88,154,209)" stroke="rgb(88,154,209)" stroke-width="1" opacity="0.4588235294117647" d="M 313.5 209 L 316 209.5 L 313.5 210 L 313.5 209 Z " /><path fill="rgb(88,154,209)" stroke="rgb(88,154,209)" stroke-width="1" opacity="0.4588235294117647" d="M 59.5 210 L 64 210.5 L 57.5 212 L 37 232.5 L 17.5 258 L 17 256.5 Q 34.6 231.1 57.5 211 L 59.5 210 Z " /><path fill="rgb(88,154,209)" stroke="rgb(88,154,209)" stroke-width="1" opacity="0.4588235294117647" d="M 190.5 210 L 193 210.5 L 184.5 213 L 184.5 212 L 190.5 210 Z " /><path fill="rgb(88,154,209)" stroke="rgb(88,154,209)" stroke-width="1" opacity="0.4588235294117647" d="M 317.5 210 L 323 211.5 L 320.5 212 L 317.5 211 L 317.5 210 Z " /><path fill="rgb(88,154,209)" stroke="rgb(88,154,209)" stroke-width="1" opacity="0.4588235294117647" d="M 65.5 211 L 68 212 L 69 215.5 L 68 215.5 L 65.5 211 Z " /><path fill="rgb(88,154,209)" stroke="rgb(88,154,209)" stroke-width="1" opacity="0.4588235294117647" d="M 330.5 214 L 347 220.5 L 345.5 221 L 330.5 215 L 330.5 214 Z " /><path fill="rgb(88,154,209)" stroke="rgb(88,154,209)" stroke-width="1" opacity="0.4588235294117647" d="M 175.5 215 L 177 215.5 L 165.5 220 L 165.5 219 L 175.5 215 Z " /><path fill="rgb(88,154,209)" stroke="rgb(88,154,209)" stroke-width="1" opacity="0.4588235294117647" d="M 68.5 219 L 69 220.5 L 64.5 226 L 51 238.5 L 28.5 266 L 27 265.5 L 29 265 Q 44.2 241.7 65.5 223 Q 67.8 223.8 67 221.5 L 68.5 219 Z " /><path fill="rgb(88,154,209)" stroke="rgb(88,154,209)" stroke-width="1" opacity="0.4588235294117647" d="M 162.5 220 L 164 220.5 L 158.5 223 L 158.5 222 L 162.5 220 Z " /><path fill="rgb(88,154,209)" stroke="rgb(88,154,209)" stroke-width="1" opacity="0.4588235294117647" d="M 348.5 221 Q 398.4 242.6 431 281.5 Q 446.3 299.2 458 320.5 L 456 319.5 Q 436.7 284.3 407.5 259 L 379.5 238 L 348.5 222 L 348.5 221 Z " /><path fill="rgb(88,154,209)" stroke="rgb(88,154,209)" stroke-width="1" opacity="0.4588235294117647" d="M 200.5 222 L 203 222.5 L 200.5 223 L 200.5 222 Z " /><path fill="rgb(88,154,209)" stroke="rgb(88,154,209)" stroke-width="1" opacity="0.4588235294117647" d="M 155.5 223 L 157 223.5 Q 112.5 244 82 278.5 Q 62.4 299.9 48.5 327 L 49 325.5 Q 68.7 286.2 100.5 259 Q 124.6 237.6 155.5 223 Z " /><path fill="rgb(88,154,209)" stroke="rgb(88,154,209)" stroke-width="1" opacity="0.4588235294117647" d="M 196.5 223 L 199 223.5 L 196.5 224 L 196.5 223 Z " /><path fill="rgb(88,154,209)" stroke="rgb(88,154,209)" stroke-width="1" opacity="0.4588235294117647" d="M 192.5 224 L 195 224.5 L 178.5 230 L 178.5 229 L 192.5 224 Z " /><path fill="rgb(88,154,209)" stroke="rgb(88,154,209)" stroke-width="1" opacity="0.4588235294117647" d="M 175.5 230 L 177 230.5 L 173.5 232 L 173.5 231 L 175.5 230 Z " /><path fill="rgb(88,154,209)" stroke="rgb(88,154,209)" stroke-width="1" opacity="0.4588235294117647" d="M 170.5 232 L 172 232.5 L 168.5 234 L 168.5 233 L 170.5 232 Z " /><path fill="rgb(88,154,209)" stroke="rgb(88,154,209)" stroke-width="1" opacity="0.4588235294117647" d="M 231.5 232 L 240 236.5 L 238.5 236 L 231.5 233 L 231.5 232 Z " /><path fill="rgb(88,154,209)" stroke="rgb(88,154,209)" stroke-width="1" opacity="0.4588235294117647" d="M 165.5 234 L 167 234.5 L 148.5 244 L 149.5 242 L 165.5 234 Z " /><path fill="rgb(88,154,209)" stroke="rgb(88,154,209)" stroke-width="1" opacity="0.4588235294117647" d="M 241.5 237 L 249 242.5 L 246.5 241 Q 241.9 239.8 241.5 237 Z " /><path fill="rgb(88,154,209)" stroke="rgb(88,154,209)" stroke-width="1" opacity="0.4588235294117647" d="M 471.5 241 L 474 241.5 L 470 243 Q 468.4 245.1 469 250.5 L 486.5 273 L 488 273.5 L 486.5 274 L 483 271.5 L 469 252.5 L 468 245.5 L 471.5 241 Z " /><path fill="rgb(88,154,209)" stroke="rgb(88,154,209)" stroke-width="1" opacity="0.4588235294117647" d="M 477.5 241 L 481 242 L 496 262.5 L 497 269.5 L 493.5 274 L 491 273.5 L 495 271.5 L 496 264.5 L 478.5 242 L 477.5 241 Z " /><path fill="rgb(88,154,209)" stroke="rgb(88,154,209)" stroke-width="1" opacity="0.4588235294117647" d="M 250.5 243 L 258.5 252 L 250.5 243 Z " /><path fill="rgb(88,154,209)" stroke="rgb(88,154,209)" stroke-width="1" opacity="0.4588235294117647" d="M 146.5 244 L 145.5 246 Q 116.2 261.7 95 285.5 Q 68.3 313.8 52.5 353 L 52 351.5 Q 71.8 303.8 107.5 272 Q 124.7 255.7 146.5 244 Z " /><path fill="rgb(88,154,209)" stroke="rgb(88,154,209)" stroke-width="1" opacity="0.4588235294117647" d="M 259.5 253 L 260.5 255 L 259.5 253 Z " /><path fill="rgb(88,154,209)" stroke="rgb(88,154,209)" stroke-width="1" opacity="0.4588235294117647" d="M 261.5 256 L 264 260.5 L 263 260.5 L 261.5 256 Z " /><path fill="rgb(88,154,209)" stroke="rgb(88,154,209)" stroke-width="1" opacity="0.4588235294117647" d="M 17.5 260 L 21 265.5 L 17 262.5 L 17.5 260 Z " /><path fill="rgb(88,154,209)" stroke="rgb(88,154,209)" stroke-width="1" opacity="0.4588235294117647" d="M 22.5 266 L 26 266.5 L 22.5 267 L 22.5 266 Z " /><path fill="rgb(88,154,209)" stroke="rgb(88,154,209)" stroke-width="1" opacity="0.4588235294117647" d="M 394.5 268 Q 406.9 274.6 415 285.5 Q 439.9 311.6 455 347.5 L 454 347.5 Q 436.5 306.5 406.5 278 L 396.5 269 L 394.5 269 Q 372.5 281.5 356 299.5 Q 343.1 311.1 338.5 331 L 338 327.5 L 346 310.5 L 366.5 288 L 394.5 268 Z " /><path fill="rgb(88,154,209)" stroke="rgb(88,154,209)" stroke-width="1" opacity="0.4588235294117647" d="M 266.5 269 L 267 276.5 L 266 276.5 L 266.5 269 Z " /><path fill="rgb(88,154,209)" stroke="rgb(88,154,209)" stroke-width="1" opacity="0.4588235294117647" d="M 262.5 287 L 257.5 293 L 262.5 287 Z " /><path fill="rgb(88,154,209)" stroke="rgb(88,154,209)" stroke-width="1" opacity="0.4588235294117647" d="M 255.5 293 L 254.5 295 L 255.5 293 Z " /><path fill="rgb(88,154,209)" stroke="rgb(88,154,209)" stroke-width="1" opacity="0.4588235294117647" d="M 217.5 308 L 219 308.5 L 215.5 310 L 215.5 309 L 217.5 308 Z " /><path fill="rgb(88,154,209)" stroke="rgb(88,154,209)" stroke-width="1" opacity="0.4588235294117647" d="M 210.5 311 L 212 311.5 L 205.5 315 L 206.5 313 L 210.5 311 Z " /><path fill="rgb(88,154,209)" stroke="rgb(88,154,209)" stroke-width="1" opacity="0.4588235294117647" d="M 203.5 315 L 202.5 317 L 199.5 319 L 201.5 316 L 203.5 315 Z " /><path fill="rgb(88,154,209)" stroke="rgb(88,154,209)" stroke-width="1" opacity="0.4588235294117647" d="M 197.5 319 L 190.5 327 L 197.5 319 Z " /><path fill="rgb(88,154,209)" stroke="rgb(88,154,209)" stroke-width="1" opacity="0.4588235294117647" d="M 459.5 324 L 465 334.5 L 464 334.5 L 459.5 324 Z " /><path fill="rgb(88,154,209)" stroke="rgb(88,154,209)" stroke-width="1" opacity="0.4588235294117647" d="M 189.5 328 L 188.5 330 L 189.5 328 Z " /><path fill="rgb(88,154,209)" stroke="rgb(88,154,209)" stroke-width="1" opacity="0.4588235294117647" d="M 187.5 331 L 187 332.5 L 185.5 336 L 185 334.5 L 187.5 331 Z " /><path fill="rgb(88,154,209)" stroke="rgb(88,154,209)" stroke-width="1" opacity="0.4588235294117647" d="M 337.5 332 L 338 340.5 L 337 340.5 L 337.5 332 Z " /><path fill="rgb(88,154,209)" stroke="rgb(88,154,209)" stroke-width="1" opacity="0.4588235294117647" d="M 44.5 334 L 45 335.5 L 41.5 342 L 41 340.5 L 44.5 334 Z " /><path fill="rgb(88,154,209)" stroke="rgb(88,154,209)" stroke-width="1" opacity="0.4588235294117647" d="M 465.5 336 L 469 343.5 L 468 343.5 L 465.5 336 Z " /><path fill="rgb(88,154,209)" stroke="rgb(88,154,209)" stroke-width="1" opacity="0.4588235294117647" d="M 338.5 342 Q 339.4 348.1 343.5 351 L 356 356.5 L 353.5 357 Q 345 354.5 340 348.5 Q 337 346 338.5 342 Z " /><path fill="rgb(88,154,209)" stroke="rgb(88,154,209)" stroke-width="1" opacity="0.4588235294117647" d="M 40.5 343 L 41 344.5 L 37.5 352 L 37 350.5 L 40.5 343 Z " /><path fill="rgb(88,154,209)" stroke="rgb(88,154,209)" stroke-width="1" opacity="0.4588235294117647" d="M 469.5 345 L 471 348.5 L 470 348.5 L 469.5 345 Z " /><path fill="rgb(88,154,209)" stroke="rgb(88,154,209)" stroke-width="1" opacity="0.4588235294117647" d="M 182.5 346 L 183 349.5 L 182 349.5 L 182.5 346 Z " /><path fill="rgb(88,154,209)" stroke="rgb(88,154,209)" stroke-width="1" opacity="0.4588235294117647" d="M 455.5 349 L 457 352.5 L 456 352.5 L 455.5 349 Z " /><path fill="rgb(88,154,209)" stroke="rgb(88,154,209)" stroke-width="1" opacity="0.4588235294117647" d="M 471.5 350 L 473 353.5 L 472 353.5 L 471.5 350 Z " /><path fill="rgb(88,154,209)" stroke="rgb(88,154,209)" stroke-width="1" opacity="0.4588235294117647" d="M 36.5 353 L 37 354.5 L 32.5 367 L 32 364.5 L 36.5 353 Z " /><path fill="rgb(88,154,209)" stroke="rgb(88,154,209)" stroke-width="1" opacity="0.4588235294117647" d="M 51.5 354 L 52 355.5 L 49.5 361 L 49 359.5 L 51.5 354 Z " /><path fill="rgb(88,154,209)" stroke="rgb(88,154,209)" stroke-width="1" opacity="0.4588235294117647" d="M 457.5 354 L 459 357.5 L 458 357.5 L 457.5 354 Z " /><path fill="rgb(88,154,209)" stroke="rgb(88,154,209)" stroke-width="1" opacity="0.4588235294117647" d="M 357.5 357 L 362 357.5 L 357.5 358 L 357.5 357 Z " /><path fill="rgb(88,154,209)" stroke="rgb(88,154,209)" stroke-width="1" opacity="0.4588235294117647" d="M 365.5 358 L 380 358.5 L 365.5 359 L 365.5 358 Z " /><path fill="rgb(88,154,209)" stroke="rgb(88,154,209)" stroke-width="1" opacity="0.4588235294117647" d="M 381.5 358 L 384.5 358 L 391 362.5 L 392 364.5 L 390 363.5 L 388.5 361 L 381.5 359 L 381.5 358 Z " /><path fill="rgb(88,154,209)" stroke="rgb(88,154,209)" stroke-width="1" opacity="0.4588235294117647" d="M 460.5 362 L 462 366.5 L 461 366.5 L 460.5 362 Z " /><path fill="rgb(88,154,209)" stroke="rgb(88,154,209)" stroke-width="1" opacity="0.4588235294117647" d="M 477.5 367 L 479 372.5 L 478 372.5 L 477.5 367 Z " /><path fill="rgb(88,154,209)" stroke="rgb(88,154,209)" stroke-width="1" opacity="0.4588235294117647" d="M 46.5 368 L 47 370.5 L 45.5 374 L 45 371.5 L 46.5 368 Z " /><path fill="rgb(88,154,209)" stroke="rgb(88,154,209)" stroke-width="1" opacity="0.4588235294117647" d="M 188.5 368 L 192 373.5 L 190 372.5 L 188.5 368 Z " /><path fill="rgb(88,154,209)" stroke="rgb(88,154,209)" stroke-width="1" opacity="0.4588235294117647" d="M 393.5 370 L 394 372.5 L 393 372.5 L 393.5 370 Z " /><path fill="rgb(88,154,209)" stroke="rgb(88,154,209)" stroke-width="1" opacity="0.4588235294117647" d="M 30.5 371 L 31 373.5 L 30 373.5 L 30.5 371 Z " /><path fill="rgb(88,154,209)" stroke="rgb(88,154,209)" stroke-width="1" opacity="0.4588235294117647" d="M 464.5 374 L 465 376.5 L 464 376.5 L 464.5 374 Z " /><path fill="rgb(88,154,209)" stroke="rgb(88,154,209)" stroke-width="1" opacity="0.4588235294117647" d="M 479.5 374 L 480 376.5 L 479 376.5 L 479.5 374 Z " /><path fill="rgb(88,154,209)" stroke="rgb(88,154,209)" stroke-width="1" opacity="0.4588235294117647" d="M 29.5 375 L 30 377.5 L 29 377.5 L 29.5 375 Z " /><path fill="rgb(88,154,209)" stroke="rgb(88,154,209)" stroke-width="1" opacity="0.4588235294117647" d="M 44.5 375 L 45 377.5 L 43 385.5 L 43.5 387 Q 40.1 387.9 42 382.5 L 44.5 375 Z " /><path fill="rgb(88,154,209)" stroke="rgb(88,154,209)" stroke-width="1" opacity="0.4588235294117647" d="M 192.5 375 L 193.5 377 L 192.5 375 Z " /><path fill="rgb(88,154,209)" stroke="rgb(88,154,209)" stroke-width="1" opacity="0.4588235294117647" d="M 392.5 375 L 393 379.5 L 392 379.5 L 392.5 375 Z " /><path fill="rgb(88,154,209)" stroke="rgb(88,154,209)" stroke-width="1" opacity="0.4588235294117647" d="M 73.5 378 L 79 378.5 L 73.5 379 L 73.5 378 Z " /><path fill="rgb(88,154,209)" stroke="rgb(88,154,209)" stroke-width="1" opacity="0.4588235294117647" d="M 91.5 378 L 95 378.5 L 91.5 379 L 91.5 378 Z " /><path fill="rgb(88,154,209)" stroke="rgb(88,154,209)" stroke-width="1" opacity="0.4588235294117647" d="M 194.5 378 L 201 387.5 L 199 386.5 L 194.5 378 Z " /><path fill="rgb(88,154,209)" stroke="rgb(88,154,209)" stroke-width="1" opacity="0.4588235294117647" d="M 465.5 378 L 466 380.5 L 465 380.5 L 465.5 378 Z " /><path fill="rgb(88,154,209)" stroke="rgb(88,154,209)" stroke-width="1" opacity="0.4588235294117647" d="M 480.5 378 L 482 385.5 L 481 385.5 L 480.5 378 Z " /><path fill="rgb(88,154,209)" stroke="rgb(88,154,209)" stroke-width="1" opacity="0.4588235294117647" d="M 28.5 379 L 29 381.5 L 28 381.5 L 28.5 379 Z " /><path fill="rgb(88,154,209)" stroke="rgb(88,154,209)" stroke-width="1" opacity="0.4588235294117647" d="M 68.5 379 L 72 379.5 L 68.5 380 L 68.5 379 Z " /><path fill="rgb(88,154,209)" stroke="rgb(88,154,209)" stroke-width="1" opacity="0.4588235294117647" d="M 64.5 380 L 67 380.5 L 64.5 381 L 64.5 380 Z " /><path fill="rgb(88,154,209)" stroke="rgb(88,154,209)" stroke-width="1" opacity="0.4588235294117647" d="M 99.5 380 L 109 386.5 L 114 395.5 L 113 395.5 L 107 385 L 99.5 381 L 99.5 380 Z " /><path fill="rgb(88,154,209)" stroke="rgb(88,154,209)" stroke-width="1" opacity="0.4588235294117647" d="M 59.5 381 L 63 381.5 L 56.5 383 L 56.5 382 L 59.5 381 Z " /><path fill="rgb(88,154,209)" stroke="rgb(88,154,209)" stroke-width="1" opacity="0.4588235294117647" d="M 391.5 381 L 392 383.5 L 391 383.5 L 391.5 381 Z " /><path fill="rgb(88,154,209)" stroke="rgb(88,154,209)" stroke-width="1" opacity="0.4588235294117647" d="M 466.5 382 L 467 384.5 L 466 384.5 L 466.5 382 Z " /><path fill="rgb(88,154,209)" stroke="rgb(88,154,209)" stroke-width="1" opacity="0.4588235294117647" d="M 27.5 383 L 28 386.5 L 27 386.5 L 27.5 383 Z " /><path fill="rgb(88,154,209)" stroke="rgb(88,154,209)" stroke-width="1" opacity="0.4588235294117647" d="M 52.5 383 L 55 383.5 L 52.5 384 L 52.5 383 Z " /><path fill="rgb(88,154,209)" stroke="rgb(88,154,209)" stroke-width="1" opacity="0.4588235294117647" d="M 48.5 384 L 51 384.5 L 45.5 386 L 45.5 385 L 48.5 384 Z " /><path fill="rgb(88,154,209)" stroke="rgb(88,154,209)" stroke-width="1" opacity="0.4588235294117647" d="M 390.5 385 L 391 387.5 L 387.5 397 L 387 394.5 L 390.5 385 Z " /><path fill="rgb(88,154,209)" stroke="rgb(88,154,209)" stroke-width="1" opacity="0.4588235294117647" d="M 467.5 386 L 468 392.5 L 467 392.5 L 467.5 386 Z " /><path fill="rgb(88,154,209)" stroke="rgb(88,154,209)" stroke-width="1" opacity="0.4588235294117647" d="M 26.5 388 L 27 391.5 L 26 391.5 L 26.5 388 Z " /><path fill="rgb(88,154,209)" stroke="rgb(88,154,209)" stroke-width="1" opacity="0.4588235294117647" d="M 482.5 388 L 483 391.5 L 482 391.5 L 482.5 388 Z " /><path fill="rgb(88,154,209)" stroke="rgb(88,154,209)" stroke-width="1" opacity="0.4588235294117647" d="M 201.5 389 L 202.5 391 L 201.5 389 Z " /><path fill="rgb(88,154,209)" stroke="rgb(88,154,209)" stroke-width="1" opacity="0.4588235294117647" d="M 25.5 393 L 26 397.5 L 25 397.5 L 25.5 393 Z " /><path fill="rgb(88,154,209)" stroke="rgb(88,154,209)" stroke-width="1" opacity="0.4588235294117647" d="M 483.5 393 L 484 397.5 L 483 397.5 L 483.5 393 Z " /><path fill="rgb(88,154,209)" stroke="rgb(88,154,209)" stroke-width="1" opacity="0.4588235294117647" d="M 466.5 394 L 467 396.5 L 466 396.5 L 466.5 394 Z " /><path fill="rgb(88,154,209)" stroke="rgb(88,154,209)" stroke-width="1" opacity="0.4588235294117647" d="M 114.5 397 L 115 399.5 L 114 399.5 L 114.5 397 Z " /><path fill="rgb(88,154,209)" stroke="rgb(88,154,209)" stroke-width="1" opacity="0.4588235294117647" d="M 386.5 398 L 387 400.5 L 386 400.5 L 386.5 398 Z " /><path fill="rgb(88,154,209)" stroke="rgb(88,154,209)" stroke-width="1" opacity="0.4588235294117647" d="M 465.5 398 L 466 400.5 L 460 414.5 L 454.5 420 L 450.5 421 L 450.5 420 Q 456.9 419.4 459 414.5 L 465.5 398 Z " /><path fill="rgb(88,154,209)" stroke="rgb(88,154,209)" stroke-width="1" opacity="0.4588235294117647" d="M 484.5 399 L 485 404.5 L 484 404.5 L 484.5 399 Z " /><path fill="rgb(88,154,209)" stroke="rgb(88,154,209)" stroke-width="1" opacity="0.4588235294117647" d="M 24.5 400 L 25 404.5 L 24 404.5 L 24.5 400 Z " /><path fill="rgb(88,154,209)" stroke="rgb(88,154,209)" stroke-width="1" opacity="0.4588235294117647" d="M 115.5 401 L 116 408.5 L 115 408.5 L 115.5 401 Z " /><path fill="rgb(88,154,209)" stroke="rgb(88,154,209)" stroke-width="1" opacity="0.4588235294117647" d="M 385.5 402 L 386 405.5 L 385 405.5 L 385.5 402 Z " /><path fill="rgb(88,154,209)" stroke="rgb(88,154,209)" stroke-width="1" opacity="0.4588235294117647" d="M 413.5 403 Q 423.8 401.7 429.5 405 L 447 418.5 L 445.5 418 L 429.5 406 Q 423.8 402.7 413.5 404 L 413.5 403 Z " /><path fill="rgb(88,154,209)" stroke="rgb(88,154,209)" stroke-width="1" opacity="0.4588235294117647" d="M 410.5 404 L 412 404.5 L 408.5 406 L 408.5 405 L 410.5 404 Z " /><path fill="rgb(88,154,209)" stroke="rgb(88,154,209)" stroke-width="1" opacity="0.4588235294117647" d="M 209.5 406 L 210 408.5 L 209 408.5 L 209.5 406 Z " /><path fill="rgb(88,154,209)" stroke="rgb(88,154,209)" stroke-width="1" opacity="0.4588235294117647" d="M 406.5 406 L 405.5 408 L 392.5 414 L 386.5 414 Q 383.3 413.3 384 408.5 L 385 408.5 Q 384.3 412.3 386.5 413 L 395.5 412 L 406.5 406 Z " /><path fill="rgb(88,154,209)" stroke="rgb(88,154,209)" stroke-width="1" opacity="0.4588235294117647" d="M 23.5 407 L 24 414.5 L 23 414.5 L 23.5 407 Z " /><path fill="rgb(88,154,209)" stroke="rgb(88,154,209)" stroke-width="1" opacity="0.4588235294117647" d="M 485.5 407 L 486 413.5 L 485 413.5 L 485.5 407 Z " /><path fill="rgb(88,154,209)" stroke="rgb(88,154,209)" stroke-width="1" opacity="0.4588235294117647" d="M 114.5 411 L 115 413.5 L 114 413.5 L 114.5 411 Z " /><path fill="rgb(88,154,209)" stroke="rgb(88,154,209)" stroke-width="1" opacity="0.4588235294117647" d="M 113.5 415 L 114 417.5 L 112.5 420 L 112 418.5 L 113.5 415 Z " /><path fill="rgb(88,154,209)" stroke="rgb(88,154,209)" stroke-width="1" opacity="0.4588235294117647" d="M 486.5 418 L 487 449.5 L 486 449.5 L 486.5 418 Z " /><path fill="rgb(88,154,209)" stroke="rgb(88,154,209)" stroke-width="1" opacity="0.4588235294117647" d="M 22.5 419 L 23 447.5 L 22 447.5 L 22.5 419 Z " /><path fill="rgb(88,154,209)" stroke="rgb(88,154,209)" stroke-width="1" opacity="0.4588235294117647" d="M 208.5 420 L 209 421.5 L 206 423.5 L 208.5 420 Z " /><path fill="rgb(88,154,209)" stroke="rgb(88,154,209)" stroke-width="1" opacity="0.4588235294117647" d="M 111.5 421 L 112 422.5 L 106.5 432 L 107 430.5 L 111.5 421 Z " /><path fill="rgb(88,154,209)" stroke="rgb(88,154,209)" stroke-width="1" opacity="0.4588235294117647" d="M 172.5 424 L 176 424.5 L 172.5 425 L 172.5 424 Z " /><path fill="rgb(88,154,209)" stroke="rgb(88,154,209)" stroke-width="1" opacity="0.4588235294117647" d="M 155.5 425 L 157 425.5 L 149.5 430 L 151.5 427 L 155.5 425 Z " /><path fill="rgb(88,154,209)" stroke="rgb(88,154,209)" stroke-width="1" opacity="0.4588235294117647" d="M 179.5 425 L 182 425.5 L 179.5 426 L 179.5 425 Z " /><path fill="rgb(88,154,209)" stroke="rgb(88,154,209)" stroke-width="1" opacity="0.4588235294117647" d="M 204.5 425 L 203.5 427 L 202 426.5 L 204.5 425 Z " /><path fill="rgb(88,154,209)" stroke="rgb(88,154,209)" stroke-width="1" opacity="0.4588235294117647" d="M 184.5 426 L 188 426.5 L 184.5 427 L 184.5 426 Z " /><path fill="rgb(88,154,209)" stroke="rgb(88,154,209)" stroke-width="1" opacity="0.4588235294117647" d="M 190.5 427 L 196 427.5 L 190.5 428 L 190.5 427 Z " /><path fill="rgb(88,154,209)" stroke="rgb(88,154,209)" stroke-width="1" opacity="0.4588235294117647" d="M 198.5 427 L 201 427.5 L 198.5 428 L 198.5 427 Z " /><path fill="rgb(88,154,209)" stroke="rgb(88,154,209)" stroke-width="1" opacity="0.4588235294117647" d="M 147.5 430 L 145.5 433 L 147.5 430 Z " /><path fill="rgb(88,154,209)" stroke="rgb(88,154,209)" stroke-width="1" opacity="0.4588235294117647" d="M 105.5 433 L 105 434.5 L 101.5 441 L 102 439.5 L 105.5 433 Z " /><path fill="rgb(88,154,209)" stroke="rgb(88,154,209)" stroke-width="1" opacity="0.4588235294117647" d="M 144.5 434 L 143 436.5 L 140.5 442 L 140 440.5 L 144.5 434 Z " /><path fill="rgb(88,154,209)" stroke="rgb(88,154,209)" stroke-width="1" opacity="0.4588235294117647" d="M 100.5 442 L 100 443.5 L 96.5 451 L 96 449.5 L 100.5 442 Z " /><path fill="rgb(88,154,209)" stroke="rgb(88,154,209)" stroke-width="1" opacity="0.4588235294117647" d="M 139.5 443 L 140 445.5 L 139 445.5 L 139.5 443 Z " /><path fill="rgb(88,154,209)" stroke="rgb(88,154,209)" stroke-width="1" opacity="0.4588235294117647" d="M 23.5 451 L 24 458.5 L 23 458.5 L 23.5 451 Z " /><path fill="rgb(88,154,209)" stroke="rgb(88,154,209)" stroke-width="1" opacity="0.4588235294117647" d="M 95.5 452 L 96 453.5 L 94.5 457 L 94 454.5 L 95.5 452 Z " /><path fill="rgb(88,154,209)" stroke="rgb(88,154,209)" stroke-width="1" opacity="0.4588235294117647" d="M 485.5 454 L 486 460.5 L 485 460.5 L 485.5 454 Z " /><path fill="rgb(88,154,209)" stroke="rgb(88,154,209)" stroke-width="1" opacity="0.4588235294117647" d="M 93.5 458 L 94 463.5 L 93 463.5 L 93.5 458 Z " /><path fill="rgb(88,154,209)" stroke="rgb(88,154,209)" stroke-width="1" opacity="0.4588235294117647" d="M 24.5 461 L 25 466.5 L 24 466.5 L 24.5 461 Z " /><path fill="rgb(88,154,209)" stroke="rgb(88,154,209)" stroke-width="1" opacity="0.4588235294117647" d="M 484.5 463 L 485 468.5 L 484 468.5 L 484.5 463 Z " /><path fill="rgb(88,154,209)" stroke="rgb(88,154,209)" stroke-width="1" opacity="0.4588235294117647" d="M 94.5 465 L 101 476.5 L 101 481.5 L 98.5 485 L 96.5 486 L 97.5 484 Q 99.8 484.8 99 482.5 Q 101.3 481.3 100 476.5 L 94 466.5 L 94.5 465 Z " /><path fill="rgb(88,154,209)" stroke="rgb(88,154,209)" stroke-width="1" opacity="0.4588235294117647" d="M 143.5 467 L 146.5 471 L 143.5 467 Z " /><path fill="rgb(88,154,209)" stroke="rgb(88,154,209)" stroke-width="1" opacity="0.4588235294117647" d="M 25.5 469 L 26 472.5 L 25 472.5 L 25.5 469 Z " /><path fill="rgb(88,154,209)" stroke="rgb(88,154,209)" stroke-width="1" opacity="0.4588235294117647" d="M 483.5 471 L 484 474.5 L 483 474.5 L 483.5 471 Z " /><path fill="rgb(88,154,209)" stroke="rgb(88,154,209)" stroke-width="1" opacity="0.4588235294117647" d="M 149.5 473 L 151.5 476 L 149.5 473 Z " /><path fill="rgb(88,154,209)" stroke="rgb(88,154,209)" stroke-width="1" opacity="0.4588235294117647" d="M 26.5 474 L 27 478.5 L 26 478.5 L 26.5 474 Z " /><path fill="rgb(88,154,209)" stroke="rgb(88,154,209)" stroke-width="1" opacity="0.4588235294117647" d="M 153.5 476 L 154.5 478 L 153.5 476 Z " /><path fill="rgb(88,154,209)" stroke="rgb(88,154,209)" stroke-width="1" opacity="0.4588235294117647" d="M 482.5 476 L 483 480.5 L 478.5 486 L 474 485.5 Q 479.5 486 481 482.5 L 482.5 476 Z " /><path fill="rgb(88,154,209)" stroke="rgb(88,154,209)" stroke-width="1" opacity="0.4588235294117647" d="M 27.5 480 L 29 484 L 36 485.5 L 31.5 486 L 28 483.5 L 27.5 480 Z " /><path fill="rgb(88,154,209)" stroke="rgb(88,154,209)" stroke-width="1" opacity="0.4588235294117647" d="M 174.5 484 L 177 484.5 L 174.5 485 L 174.5 484 Z " /><path fill="rgb(88,154,209)" stroke="rgb(88,154,209)" stroke-width="1" opacity="0.4588235294117647" d="M 180.5 485 L 185 485.5 L 180.5 486 L 180.5 485 Z " /><path fill="rgb(90,153,209)" stroke="rgb(90,153,209)" stroke-width="1" opacity="0.996078431372549" d="M 265.5 25 Q 273.1 23.9 275 28.5 L 282 65.5 L 283.5 67 L 318.5 59 L 327.5 59 L 375 75 Q 378.4 79.2 377 89.5 Q 374.6 100.6 366.5 106 L 358.5 110 L 289.5 124 L 285 126.5 L 277 172.5 L 272.5 177 L 263.5 178 L 243.5 183 L 237.5 183 L 233 177.5 L 232 168.5 L 225 138 L 189.5 146 L 175.5 148 L 170.5 150 L 160.5 151 L 157 148.5 L 128 80.5 L 128 74.5 L 134.5 70 Q 140.6 70.6 143.5 68 L 151.5 68 L 182.5 89 L 186.5 89 L 214.5 82 L 218.5 82 L 223 79.5 L 231 38.5 L 234.5 32 L 265.5 25 Z M 261 40 L 246 43 L 243 48 L 237 77 L 269 71 L 264 42 L 261 40 Z M 319 73 L 187 103 L 180 103 L 150 83 L 144 82 L 166 136 L 222 125 L 221 121 L 221 116 L 226 111 L 232 112 L 235 118 L 245 168 L 264 165 L 265 164 L 276 104 L 281 100 L 286 101 L 289 106 L 288 111 L 349 99 L 358 96 Q 362 93 364 87 L 363 85 L 326 73 L 319 73 Z " /><path fill="rgb(90,153,209)" stroke="rgb(90,153,209)" stroke-width="1" opacity="0.996078431372549" d="M 317.5 144 L 322.5 144 L 350.5 152 L 368.5 159 L 379 165.5 L 380 170.5 L 376.5 175 L 371.5 176 L 343.5 164 L 320.5 158 L 314 154.5 L 313 149.5 L 317.5 144 Z " /><path fill="rgb(90,153,209)" stroke="rgb(90,153,209)" stroke-width="1" opacity="0.996078431372549" d="M 135.5 161 Q 142 160 144 163.5 L 145 169.5 L 141.5 174 L 119.5 184 L 90.5 202 L 84 197.5 Q 82.5 190.5 86.5 189 Q 108.8 172.8 135.5 161 Z " /><path fill="rgb(90,153,209)" stroke="rgb(90,153,209)" stroke-width="1" opacity="0.996078431372549" d="M 403.5 180 L 407.5 180 L 420.5 188 L 455 216.5 L 456 222.5 L 453.5 226 L 446.5 227 L 423.5 207 L 399 189.5 Q 397.5 182.5 401.5 181 L 403.5 180 Z " /><path fill="rgb(90,153,209)" stroke="rgb(90,153,209)" stroke-width="1" opacity="0.996078431372549" d="M 240.5 202 L 269.5 202 L 270.5 203 L 280.5 203 L 281.5 204 L 294.5 205 L 323.5 212 L 347.5 221 Q 396.3 242.7 429 280.5 Q 460.9 315.6 477 366.5 L 482 386.5 L 484 404.5 L 485 405.5 L 485 413.5 L 486 414.5 L 486 453.5 L 485 454.5 L 485 462.5 L 484 463.5 L 484 470.5 L 482 480.5 L 478.5 485 Q 470.8 486.7 469 482.5 L 468 477.5 L 472 455.5 L 473 425.5 L 471.5 421 L 465.5 429 Q 460 436 445.5 434 Q 432.8 428.7 424.5 419 Q 422.2 416.3 416.5 417 L 402.5 425 L 392.5 428 L 386.5 428 Q 377.3 426.3 373 419.5 Q 369 414.5 371 403.5 L 373 393.5 L 378 380.5 L 379 372.5 L 377.5 373 L 357.5 372 L 348.5 370 Q 337 366.5 330 358.5 Q 322.3 350.2 323 333.5 L 326 319.5 L 331 308.5 Q 343.1 290.1 359.5 276 L 376.5 263 L 383 260 L 380.5 256 Q 354.5 237 320.5 226 L 285.5 218 L 265.5 217 L 264.5 216 L 243.5 216 L 242.5 217 L 233 217.5 Q 256.4 226.6 271 244.5 Q 277.3 252.2 280 263.5 L 281 278.5 L 279 287.5 L 275 295.5 L 265.5 305 L 255.5 311 L 218.5 324 Q 206.9 328.4 200 337.5 Q 195.3 342.3 197 353.5 L 203 366.5 L 220 393.5 L 224 406.5 L 224 420.5 Q 221.1 433.1 211.5 439 L 205.5 442 L 193.5 443 L 175.5 439 L 165.5 439 L 164.5 438 Q 158 439.5 155 444.5 Q 152.2 447.2 153 453.5 Q 155.1 461.4 161.5 465 L 167.5 468 L 179.5 471 L 200.5 472 L 205 475.5 L 206 479.5 L 202.5 485 L 200.5 486 L 185.5 486 L 164.5 482 Q 154 478.5 147 471.5 Q 141.2 465.8 139 456.5 L 139 446.5 Q 141.5 436 148.5 430 L 160.5 424 L 171.5 424 L 190.5 428 L 200.5 428 Q 206.6 426.6 209 421.5 Q 211.5 416 210 406.5 L 203 390.5 L 187 365.5 L 183 353.5 L 183 342.5 Q 187.2 327.2 198.5 319 L 214.5 310 L 246.5 299 Q 256.8 295.3 263 287.5 L 266 281.5 L 267 269.5 Q 263.3 251.7 250.5 243 Q 230.5 227.5 200.5 222 Q 133.2 240.7 93 286.5 Q 76.4 304.4 64 326.5 Q 48.3 352.6 42 387 L 72.5 379 L 90.5 378 L 98.5 380 L 107 385 L 114 396.5 L 115 410.5 L 112 420.5 L 96 449.5 L 93 458.5 L 93 463.5 L 100 476.5 L 100 481.5 L 99 484 L 95.5 486 L 91.5 486 L 88 484 L 81 471.5 L 79 460.5 L 83 444.5 L 100 413.5 L 101 401.5 L 95.5 394 L 91.5 392 L 76.5 392 L 58.5 396 L 47.5 400 L 39 401 Q 37.3 405.5 38 413.5 L 37 414.5 L 37 451.5 L 38 452.5 L 38 461.5 L 41 475.5 L 41 481.5 Q 39.5 486.5 31.5 485 L 29 484 L 27 479.5 L 25 461.5 L 24 460.5 L 24 451.5 L 23 450.5 L 23 415.5 L 24 414.5 L 24 405.5 L 25 404.5 L 26 392.5 L 31 370.5 L 45 333.5 Q 65.9 290.9 99.5 261 Q 127.3 235.8 164.5 220 L 200.5 208 L 221.5 204 L 239.5 203 L 240.5 202 Z M 395 268 L 367 288 Q 354 299 344 314 Q 339 321 337 333 L 337 341 L 340 349 L 351 356 L 366 359 L 380 359 L 381 358 L 389 361 L 393 369 L 392 381 L 387 395 L 384 409 Q 383 413 387 414 L 396 413 L 413 404 Q 423 403 430 406 L 445 418 L 451 421 L 455 420 Q 461 415 464 407 L 468 393 L 468 387 L 465 375 L 455 347 Q 439 312 415 286 Q 407 275 395 268 Z " /><path fill="rgb(90,153,209)" stroke="rgb(90,153,209)" stroke-width="1" opacity="0.996078431372549" d="M 59.5 211 Q 66.8 209.8 68 214.5 L 69 218.5 L 67 223 L 65.5 223 L 48 240.5 L 29 265 Q 26.9 266.6 21.5 266 Q 17.4 264.1 17 258.5 Q 34.1 232.1 57.5 212 L 59.5 211 Z " /><path fill="rgb(90,153,209)" stroke="rgb(90,153,209)" stroke-width="1" opacity="0.996078431372549" d="M 474.5 241 Q 481.6 241.8 484 247.5 L 495 262.5 L 496 269.5 L 493.5 273 L 488.5 274 L 482 268.5 L 470 252.5 L 469 245.5 L 470 243 L 474.5 241 Z " /></svg>